<?xml version="1.0" encoding="utf-8"?>
<!-- Generator: Adobe Illustrator 21.0.0, SVG Export Plug-In . SVG Version: 6.00 Build 0)  -->
<svg version="1.1" id="图层_1" xmlns="http://www.w3.org/2000/svg" xmlns:xlink="http://www.w3.org/1999/xlink" x="0px" y="0px"
	 viewBox="0 0 1488.1 1516.3" style="enable-background:new 0 0 1488.1 1516.3;" xml:space="preserve">
<style type="text/css">
	.st0{fill:#2525D8;}
	.st1{fill:#0072FF;}
	.st2{fill:#FFFFFF;}
	.st3{fill:#0072FF;stroke:#FFFFFF;stroke-linejoin:round;stroke-miterlimit:10;}
	.st4{fill:#0072FF;stroke:#FFFFFF;stroke-width:2;stroke-linejoin:round;stroke-miterlimit:10;}
	.st5{fill:#0D0D72;}
</style>
<g>
	<polygon class="st0" points="1196.1,128.1 1193.5,64.1 1185.2,33.2 1187.8,109.1 1193.1,124.1 	"/>
	<polygon class="st0" points="548.5,1168.3 546.4,1174.9 547.9,1190.2 556.2,1221.1 554.7,1205.8 556.8,1199.2 	"/>
	<polygon class="st0" points="595.5,1183.5 593.2,1174.9 588.1,1177.8 590.6,1187.1 590.6,1187.1 596.4,1208.7 599.5,1206.9 
		601.5,1205.8 596.5,1187.1 	"/>
	<polygon class="st0" points="706.6,1186.8 706.3,1185.8 702.9,1172.9 702.7,1172.3 698.3,1155.9 695.1,1163.5 698.5,1176 
		685.6,1181.6 687.7,1189.1 693.9,1212.5 707,1206.8 703.6,1194 703.6,1194 707,1206.8 707.3,1198.2 705.2,1190.3 	"/>
	<polygon class="st0" points="671.8,1179.7 666.4,1193 658.6,1198.5 655.6,1187.3 650.5,1192.1 653.7,1204 658.8,1223 663.6,1218.5 
		666.6,1229.6 674.7,1223.9 680,1210.6 676.6,1197.9 	"/>
	<polygon class="st0" points="537.9,1236.3 539.1,1225.8 530.9,1194.9 529.6,1205.4 536.5,1253.6 537.9,1263.4 542.3,1283.4 
		540,1295.7 536.8,1303.3 536.6,1310 544.9,1340.9 545,1334.2 548.3,1326.6 550.6,1314.3 546.2,1294.3 	"/>
	<polygon class="st0" points="943.4,1191.1 941,1204.4 940.7,1216.8 944.1,1229.7 949,1247.7 949.3,1235.3 950.5,1228.7 
		950.5,1228.7 950.6,1228 951.7,1222 950.6,1218 	"/>
	<polygon class="st0" points="521.2,1324.3 529.5,1355.2 529.7,1348.5 521.4,1317.6 	"/>
	<polygon class="st0" points="520,1356.5 522.5,1355.2 514.2,1324.3 507.2,1328.1 505.9,1337.6 510.5,1354.6 510.4,1354.7 
		518.7,1385.6 524.9,1376.1 519.7,1356.7 	"/>
	<polygon class="st0" points="453.4,1396.5 446.4,1399.4 454.7,1430.3 461.7,1427.4 465.1,1414.1 456.8,1383.2 	"/>
	<polygon class="st0" points="498,1397.4 500.8,1384.6 492.5,1353.7 486.8,1380.4 488.4,1386.5 495,1411.3 497.3,1400.6 
		497.3,1400.6 502.7,1420.8 502,1412.2 	"/>
	<polygon class="st0" points="478.3,1397.5 486.6,1428.4 488.9,1416 480.6,1385.1 	"/>
	<polygon class="st0" points="446.1,1409.8 446,1409.9 446,1409.8 442.5,1396.5 439.4,1400.3 442.8,1412.9 442,1413.6 450.3,1444.5 
		454.4,1440.7 450.8,1427.5 	"/>
	<polygon class="st0" points="1220.4,1295.6 1215.9,1278.6 1111.6,1302.4 1078.9,1308.9 1078.9,1308.9 1071.4,1310.4 1068.5,1310.9 
		1070.9,1320 1076.8,1341.8 1119.9,1333.3 1224.2,1309.5 	"/>
	<polygon class="st0" points="1444.7,584.3 1429.5,709.2 1429.5,709.2 1426.6,733.2 1417.4,808.8 1414.1,832.7 1414.1,832.9 
		1414.1,833 1402.4,917.2 1380.7,1050.3 1379.4,1062.6 1374.2,1109.6 1359.2,1246.3 1356.3,1278.6 1328.9,1333.8 1332.4,1346.8 
		1337.2,1364.7 1364.6,1309.5 1365.1,1303.6 1367.5,1277.2 1376.8,1192.2 1376.9,1192.1 1389,1081.2 1410.7,948.1 1425.7,839.7 
		1453,615.2 	"/>
</g>
<g>
	<path class="st1" d="M64.6,1356.5l4.5-23.1h4.2l0.8,4.5l4.7,3.4l1.3-6.2l38.8-20.6l5.8,8.6l24.1-15.7l-30.9-73.6l-5.7-43.7
		l-10.4-54.2l-25.1-65.7l-35.2-86.9l9.7-1.9l2.2-7.6l7.2-1l-0.8-7.5h9.1l2.9,4.8l6.9-0.9l3.8,9.6l13.4-4.9l17.7,4.7l34.2-3.8
		l42.6-26.6l26.7-4.7l13.1,11.7l-2.7,1.1h-8l-8.4,5.2v6.8h-5.3l10.4,3.9l2.8,6.5l-2.7,3.6h-3.6l4.2,8.5l-3.2,5.3l4.9,2l-3.8,4.8
		l6.6,8.5H214l1,4h-3.9v19.7l7.3,8.3h6.9l3,9h19.9v10h2.2l4.7,12.2c-1.7,0.5-5.7,1.7-6.1,3.3c-0.1,0.3-0.1,0.8,0.4,1.4
		c2.1,2.1,6.2,2.1,6.4,2.1h5.5v5.8l-10.9-3l-1.1,8l6.5,2.2h5.6v3.3l-2.8,3.8l-3.5,2.3l6.1,5.1l-5.8,7.8v10.7h6.1l1.9,8.3l-5.1,5.1
		l1.6,2.2l3.7,5.2l6.8,4.8l-3,7.9l3.1,4.1v16.3H265l2,13h-9l-2-8h-3.8l-4.1,14.4v8.6h-8.8l-8.1,14.2l-6.1,6.1v5.7h7v12H225l2.1,13.5
		l-2,11.8l-5.8,6.7H214l2,20.5l-2,12.2l7.2,8.2l7.9,5.9l0.5,14.2c-3.9-0.9-7.4-1.3-10.4-1.3l-0.8,0.1c-20.8,2.6-40.4,5.1-47.2,5.1
		c-0.4,0-0.8,0-1.3,0c-7.5,0-21.1,1.5-33.1,2.8c-7.3,0.8-14.2,1.5-18.8,1.8c-10.4,0.7-28.5,5.7-37.6,9.8c-0.1,0.1-0.2,0.1-0.4,0.2
		c-3.1,1.4-5,2.6-5.6,3.6c-0.4,0.3-2,1.6-4.4,1.7L64.6,1356.5z"/>
	<path class="st2" d="M216.9,943.9l12.3,11l-1.8,0.7h-7.8h-0.3l-0.2,0.2l-8,5l-0.5,0.3v0.6v6h-2h-5.5l5.2,1.9l7.6,2.9l2.6,6.1
		l-2.4,3.1h-2.5H212l0.7,1.4l3.8,7.5l-2.7,4.5l-0.6,1l1.1,0.4l3.7,1.5l-3.2,3.9l-0.5,0.6l0.5,0.6l5.7,7.4h-6h-1.3l0.3,1.2l0.7,2.8
		h-2.7h-1v1v19v0.4l0.2,0.3l7,8l0.3,0.3h0.5h6.3l2.8,8.3l0.2,0.7h0.7h19v9v1h1h1.3l4.4,11.3c-2.2,0.6-5.5,1.8-5.9,3.5
		c-0.1,0.4-0.2,1.1,0.5,1.8c2.3,2.3,6.5,2.3,6.7,2.3h5v4.7l-9.7-2.7l-1.1-0.3l-0.2,1.1l-1,7l-0.1,0.8l0.8,0.3l6,2l0.2,0.1h0.2h5v2.7
		l-2.7,3.6l-2.9,1.9l-1.1,0.7l1,0.9l5.3,4.4l-5.4,7.2l-0.2,0.3v0.3v10v1h1h5.2l1.7,7.7l-4.6,4.6l-0.6,0.6l0.5,0.7l1.3,1.8l3.7,5.2
		l0.1,0.1l0.1,0.1l6.4,4.6l-2.7,7.3l-0.2,0.5l0.3,0.4l2.8,3.7v15.7h-4h-1.2l0.2,1.2l1.8,11.8h-8.1l-1.8-7.2l-0.2-0.8h-0.8h-3h-0.8
		l-0.2,0.7l-4,14v0.1v0.1v8h-8H239l-0.3,0.5l-7.9,13.9l-5.9,5.9l-0.3,0.3v0.4v5v1h1h6v11h-6h-1.2l0.2,1.2l2,12.8l-1.9,11.6l-5.5,6.4
		h-4.5h-1.1l0.1,1.1l2,19.9l-2,11.9l-0.1,0.5l0.3,0.4l7,8l0.1,0.1l0.1,0.1l7.6,5.7l0.4,13.3c-3.7-0.8-7-1.2-9.8-1.2h-0.1h-0.1
		l-0.8,0.1c-20.7,2.6-40.3,5-47,5c-0.4,0-0.9,0-1.3,0c-7.5,0-21.1,1.5-33.1,2.8c-7.3,0.8-14.2,1.5-18.8,1.8
		c-10.8,0.7-28.6,5.8-37.8,9.8c-0.1,0.1-0.2,0.1-0.4,0.2c-4.1,1.9-5.3,3-5.8,3.7c-0.4,0.3-1.8,1.4-3.8,1.5l-5.2-6.8l4.4-22.5h3.3
		l0.7,3.9l0.1,0.4l0.3,0.2l0.5,0.4l3.4,2.5l1.3,0.9l0.3-1.5l1.1-5.2l38.2-20.3l5.2,7.8l0.5,0.8l0.8-0.5l19.6-12.8l3.7-2.4l0.7-0.5
		l-0.3-0.8l-30.8-73.1l-5.7-43.6l0,0l0,0l-6.9-35.7l-3.6-18.5v-0.1v-0.1l-25-65.6L42,983.5l8.8-1.7l0.6-0.1l0.2-0.6l2-7l6.4-0.9
		l1-0.1l-0.1-1l-0.7-6.5h8.3l2.6,4.3l0.3,0.6l0.7-0.1l6.2-0.8l3.4,8.8l0.4,0.9L83,979l12.8-4.6l17.5,4.7h0.2h0.2l34-3.8h0.2l0.2-0.1
		l42.4-26.5L216.9,943.9 M217.2,942.9l-27,4.8l-42.6,26.6l-34,3.8l-17.8-4.8l-13.1,4.8l-3.7-9.5l-7,1l-2.9-4.8h-10l0.8,7.6l-7,1
		l-2.2,7.6l-10,1.9l35.4,87.5l25,65.6l3.6,18.5l6.9,35.7l5.7,43.7l30.8,73.2l-3.7,2.4l-19.6,12.8l-5.7-8.6l-39.4,20.9l-1.2,5.7
		l-3.4-2.5l-0.5-0.4l-0.9-4.8h-5l-4.7,23.8l5.8,7.6c3,0,4.9-1.8,5-1.9c0.5-0.9,2.5-2.1,5.4-3.4c0.1-0.1,0.2-0.1,0.4-0.2
		c9.2-4,27-9,37.4-9.7c12.2-0.8,39.9-4.6,51.8-4.6c0.5,0,0.9,0,1.3,0c6.9,0,26.6-2.5,48-5.2c3.2,0,6.9,0.5,10.9,1.5l-0.5-15.1l-8-6
		l-7-8l2-12l-2-20h5l6-7l2-12l-2-13h7v-13h-7v-5l6-6l8-14h9v-9l4-14h3l2,8h10l-2-13h5v-17l-3-4l3-8l-7-5l-3.7-5.2l-1.3-1.8l5-5l-2-9
		h-6v-10l6-8l-6-5l3-2l3-4v-4h-6l-6-2l1-7l11,3v-7h-6c0,0-4,0-6-2s6-4,6-4l-5-13h-2v-10h-20l-3-9h-7l-7-8v-19h4l-1-4h8l-7-9l4-5
		l-5-2l3-5l-4-8h3l3-4l-3-7l-8-3h3v-7l8-5h8l3.3-1.3l0.2-0.1l0,0L217.2,942.9L217.2,942.9z"/>
</g>
<g>
	<path class="st1" d="M434,1406.1l-24.2-22.7c-0.8-1.8-6.9-13.1-36.8-13.1c-3.8,0-7.9,0.2-12.2,0.6h-0.1c-4.8-0.3-9.9-0.5-14.4-0.5
		c-6.1,0-10.8,0.3-14,1c-3.6,0.7-8.7,1.2-14.1,1.2c-10.3,0-19.1-1.5-24.4-4c-1.5-0.7-3.9-2-7-3.7c-13.2-7-37.7-20-56.5-24.5
		l-0.5-14.9l-8.2-6.1l-6.8-7.8l2-11.8l-2-19.5h4.7l6.2-7.3l2-12.2l-1.9-12.5h6.9v-14h-7v-4.3l5.9-5.9l7.9-13.8h9.2v-9.4l3.9-13.6
		h2.2l2,8h11l-2-13h4.9v-17.7l-2.9-3.9l3-8.1l-7.2-5.2l-3.3-4.6l2.9-1.4l5.9,3.9h7.2l11.4-3.8v2.4l4.2,7.4l14-3l3.8,6.7l10.1,11.1
		l7.8,3.3v-8.6l3.6-3.6l4.9,3l8.1-5.1h10.4v18h12v8h16v3.3l8-3.4v-4.9l18.5-2.9l19.9,4l8.5,2.8l-2,10.2H449l7.9,3.9l14.9,6
		l10.9,16.9l9.2,13.2h12.2l9.6,3.8v5l8,4v11.3l8.5-1.1l5.4,0.9l1.4,9.4l4.4,19.9l-2.3,12.2l-3.2,7.6l-0.2,6.5l-15.2,7.6l-0.2,6.5
		h-6.6l-7.4,4l-1.4,10.3h9.1l1.6,7l-6,9.1h-8.7l-9.3-1l-5.9,27.6l7.1,1l0.6,7.2l-6.1-3.4l-7.5-1l-2.4,12.5l-6.3,0.9l-9.5-16.2
		l-5.7,1.1l-3.4,13.4l-6.5,2.7l-4.1-3l-3.6,4.5l6.7,9.5l-3.5,3.2L434,1406.1z"/>
	<path class="st2" d="M263.5,1141.8l5.5,3.7l0.3,0.2h0.3h7h0.2l0.2-0.1l10.7-3.6v1.6v0.3l0.1,0.2l4,7l0.4,0.6l0.7-0.2l13.3-2.8
		l3.6,6.4l0.1,0.1l0.1,0.1l10,11l0.1,0.2l0.2,0.1l7,3l1.4,0.6v-1.5v-7.6l3.2-3.2l4.3,2.6l0.5,0.3l0.5-0.3l7.8-4.8h9.7v17v1h1h11v7v1
		h1h15v2v1.5l1.4-0.6l7-3l0.6-0.3v-0.7v-4.1l18-2.8l19.8,4l8.1,2.7l-1.8,9.1l-0.2,1.2h1.2h12.8l7.8,3.9l0,0l0,0l14.7,5.9l10.8,16.8
		l9,13l0.3,0.4h0.5h11.8l9.2,3.7v4.3v0.6l0.6,0.3l7.4,3.7v10.4v1.1l1.1-0.1l7.9-1l5,0.8l1.3,9.1l0,0l0,0l4.4,19.8l-2.3,12.1
		l-3.2,7.5l-0.1,0.2v0.2l-0.2,6.1l-14.6,7.3l-0.5,0.3v0.6l-0.2,5.7h-6H514l-0.2,0.1l-7.1,3.8l-0.5,0.2l-0.1,0.5l-1.3,9.5l-0.2,1.1
		h1.1h8.2l1.5,6.4l-3.2,4.9l-2.5,3.8h-8.4l-8.9-0.9l-0.9-0.1l-0.2,0.9l-5.7,26.6l-0.2,1.1l1.1,0.1l6.2,0.8l0.5,5.9l-4.4-2.4
		l-0.8-0.4l-0.2-0.1h-0.2l-6.9-1l-0.9-0.1l-0.2,0.9l-2.2,11.7l-5.6,0.8l-9.2-15.6l-0.4-0.6l-0.7,0.1l-5,1l-0.6,0.1l-0.2,0.6
		l-3.3,12.8l-6.1,2.5l-3.5-2.5l-0.8-0.6l-0.6,0.7l-3.1,3.8l-0.5,0.6l0.4,0.6l6.2,8.8l-2.7,2.5l-0.1,0.1l-7.6-6.5l-24.1-22.7
		c-1-2.1-7.5-13.4-37.2-13.4c-3.8,0-7.9,0.2-12.1,0.6h-0.1c-2.8-0.2-8.3-0.5-14.4-0.5c-6.2,0-10.9,0.3-14.1,1
		c-3.5,0.7-8.6,1.2-14,1.2c-10.2,0-19-1.4-24.2-3.9c-1.5-0.7-3.9-2-7-3.6c-13.1-7-37.4-19.9-56.2-24.5l-0.5-14.3v-0.5l-0.4-0.3
		l-7.9-5.9l-6.6-7.6l1.9-11.5v-0.1v-0.1l-1.9-18.9h3.9h0.5l0.3-0.3l6-7l0.2-0.2v-0.3l2-12v-0.2v-0.2l-1.8-11.8h5.8h1v-1v-13v-1h-1
		h-6v-3.6l5.7-5.7l0.1-0.1l0.1-0.1l7.7-13.5h8.4h1v-1v-8.9l3.8-13.1h1.5l1.8,7.2l0.2,0.8h0.8h10h1.2l-0.2-1.2l-1.8-11.8h3.8h1v-1
		v-17v-0.3l-0.2-0.3l-2.7-3.6l2.8-7.5l0.3-0.7l-0.6-0.4l-6.9-4.9l-2.9-4.1L263.5,1141.8 M288.6,1140.6l-12,4h-7l-6-4l-3.7,1.8
		l3.7,5.2l7,5l-3,8l3,4v17h-5l2,13h-10l-2-8h-3l-4,14v9h-9l-8,14l-6,6v5h7v13h-7l2,13l-2,12l-6,7h-5l2,20l-2,12l7,8l8,6l0.5,15.1
		c23.2,5.4,55.7,24.4,63.7,28.2c6,2.9,15.8,4,24.6,4c5.5,0,10.7-0.5,14.2-1.2c3.6-0.8,8.9-1,13.9-1c7.5,0,14.2,0.5,14.5,0.5
		c4.4-0.4,8.4-0.6,12.1-0.6c31.1,0,36.1,12.3,36.4,12.9l24.3,22.8l8.3,7.1l0.8-0.7l3.3-3.1l0,0l-0.1-0.1l-6.6-9.4l3.1-3.8l3.9,2.8
		l7-2.8l3.4-13.3l5-1l9.5,16.2l7-0.9l2.3-12.4l6.9,1l0.8,0.4l6.1,3.3l-0.8-8.5l-7-1l5.7-26.6l8.9,0.9h9l0.1-0.1l2.7-4.1l3.5-5.3
		l-1.8-7.6h-9l1.3-9.5l7.1-3.8h7l0.2-6.7l15.2-7.6l0.2-6.7l3.2-7.6l2.3-12.4l-4.4-20l-1.4-9.8l-5.9-0.9l-8,1v-11l-8-4v-5l-10-4h-12
		l-9-13l-11-17l-15-6l-8-4h-13l2-10l-9-3l-20-4l-19,3v5l-7,3v-3h-16v-8h-12v-18h-11l-8,5l-5-3l-4,4v8l-7-3l-10-11l-4-7l-14,3l-4-7
		L288.6,1140.6L288.6,1140.6z"/>
</g>
<g>
	<polygon class="st1" points="795.1,882.5 795.1,904.8 801,917.6 798.1,923.5 798.1,930.8 801.1,934.8 798,958.1 801.1,958.1 
		801.1,966.6 799.1,979.7 802.1,994.7 801.1,1010.6 803.1,1029.6 801.2,1041.1 801.2,1040.9 800.8,1040.9 802.7,1029.8 
		800.7,1010.9 800.7,1010.7 801.7,994.8 798.7,979.9 798.7,979.5 800.7,966.6 800.7,958.7 797.6,958.7 797.7,957.6 800.6,935 
		797.8,931.3 797.6,931 797.6,923.5 797.7,923.3 800.5,917.7 794.7,905.1 794.6,904.9 794.6,882.4 794.7,882.2 800.7,871.2 
		808.6,857.4 808.6,839.5 800.4,842.4 800.2,842.4 787.4,845.4 779.5,850.3 763.5,861.3 763.4,861.4 763.3,861.4 747.4,866.4 
		737.6,871.3 726.7,882.2 726.6,882.3 726.5,882.4 708.5,892.4 698.5,898.4 682.5,907.4 672,914.1 672,922.1 671.6,922.4 
		664.6,927.4 659.6,931.4 659.3,931.6 651,931.6 637.3,933.6 628.5,940.4 628.3,940.4 621.3,944.4 621.1,944.5 611.5,944.5 
		611.2,944.3 604.4,939.4 594.6,937.4 594.4,937.4 589.2,935.7 580.6,952.9 580.5,953.1 580.3,953.2 575.3,957.2 575.1,957.3 
		574.9,957.4 564.3,960.3 560.5,966.9 560.2,967.4 552.3,967.4 552.1,967.3 543.2,962.3 541.1,961.6 538.5,966.8 538.2,967.4 
		534.6,967.4 534.6,977.4 525.6,977.4 525.6,988 525.1,988.3 520.6,991 520.6,1000.1 520,1000.4 515.9,1002 520.4,1015.4 
		528,1015.4 527.7,1016.6 525.9,1023.7 530.9,1025.4 541.9,1025.4 552.9,1028.4 553.5,1028.6 553.6,1029.2 554.4,1033.4 
		559.9,1033.4 560.2,1033.6 566.2,1037.6 566.6,1037.9 566.6,1040.4 570,1040.4 570.3,1040.6 576.3,1045.6 576.5,1045.8 
		579.5,1050.8 579.7,1051.1 579.7,1051.4 578.7,1075.4 578.7,1076.3 577.8,1076.4 552.4,1078.4 551.8,1079.7 551.8,1085.5 
		546.7,1085.5 545.8,1093.6 545.7,1094.5 540.7,1094.5 539.8,1109.6 539.7,1110.5 535.9,1110.5 536.8,1121.4 536.8,1121.6 
		536.7,1121.8 533.7,1130.8 533.5,1131.5 528.8,1131.5 528.8,1145.5 539.7,1145.5 539.8,1146.4 541.7,1161.5 553.8,1161.5 
		553.8,1165.9 564.6,1163.4 565.5,1163.2 565.8,1164 569.1,1173.4 572.1,1173.4 577.4,1172.8 577.6,1172.8 577.8,1172.9 
		588.2,1176.6 592.9,1174 594.4,1173.1 594.4,1174.9 594.2,1181.8 596.1,1182.5 599.9,1184 600.3,1183.7 601.8,1182.8 601.8,1184.8 
		608.2,1187.3 621.8,1190.1 630.6,1189.2 630.9,1189.2 631.2,1189.4 637.8,1193.1 643.4,1193.1 650.1,1191.3 655,1186.7 
		656.2,1185.6 656.6,1187.2 659.2,1197 665.6,1192.5 670.8,1179.5 671,1179 671.6,1178.9 678.6,1177.9 678.9,1177.9 679.1,1178 
		685.6,1180.7 697.7,1175.4 697.9,1167.9 694.3,1164.4 693.8,1163.9 694.1,1163.3 697.3,1155.7 697.5,1155.2 698.1,1155.1 
		707.1,1154.1 707.3,1154.1 727.2,1155 727.5,1155 727.7,1155.1 740.4,1162.7 740.5,1162.7 740.6,1162.8 751,1172 781.6,1171.2 
		781.8,1171.2 799.6,1174 807.2,1174.3 806.7,1167.8 806.2,1163.7 807.2,1168.8 807.7,1174.8 799.4,1174.4 781.6,1171.6 
		750.8,1172.5 740.3,1163.1 727.4,1155.4 707.3,1154.5 698,1155.4 694.5,1163.6 698.5,1167.5 698.3,1175.5 685.6,1181.1 
		678.8,1178.2 671.4,1179.2 666,1192.7 658.9,1197.7 655.9,1186.4 650.2,1191.6 643.4,1193.5 637.6,1193.5 630.7,1189.6 
		621.6,1190.6 607.9,1187.8 601.1,1185.1 601.1,1183.8 599.7,1184.6 593.5,1182.2 593.7,1174.1 588.1,1177.2 577.3,1173.5 
		571.9,1174 568.5,1174 564.9,1163.9 553.1,1166.7 553.1,1162.1 541,1162.1 539,1146.1 528.1,1146.1 528.1,1131.1 533,1131.1 
		536.1,1121.7 535.1,1110.1 539.1,1110.1 540.1,1094.1 545.1,1094.1 546.1,1085.1 551.1,1085.1 551.1,1079.8 551.9,1078.1 
		578.1,1076.1 579.1,1051.5 576,1046.3 569.8,1041.1 566.1,1041.1 566.1,1038.4 559.8,1034.1 554,1034.1 553,1029.2 541.7,1026.1 
		530.7,1026.1 525.2,1024.3 527.2,1016.1 520,1016.1 515.2,1001.9 520.1,1000 520.1,990.9 525.1,987.9 525.1,977.1 534.1,977.1 
		534.1,967.1 537.9,967.1 540.9,961.3 543.4,962.1 552.5,967.1 559.9,967.1 563.9,960.1 574.8,957.1 580,953 588.9,935.3 
		594.4,937.1 604.4,939.1 611.4,944.1 620.7,944.1 627.9,940.1 636.8,933.1 650.7,931.1 658.8,931.1 663.9,927 671.1,921.9 
		671.1,913.9 681.9,907.1 697.8,898.1 707.9,892.1 725.9,882 736.9,871.1 746.8,866.1 762.8,861.1 778.9,850.1 786.8,845.1 
		799.7,842.1 809.1,838.8 809.1,857.5 801.2,871.4 	"/>
	<path class="st2" d="M801.8,871.5l8-14v-19.4h-0.2l-10,3.6l-13,3l-8,5l-16,11l-16,5l-10,5l-11,11l-18,10l-10,6l-16,9l-11,7v8l-7,5
		l-5,4h-8l-14,2l-9,7l-7,4h-9l-7-5l-10-2l-6-2l-9,18l-5,4l-11,3l-4,7h-7l-9-5l-3-1l-3,6h-4v10h-9v11l-5,3v9l-5,2l5,15h7l-2,8l6,2h11
		l11,3l1,5h6l6,4v3h4l6,5l3,5l-1,24l-26,2l-1,2v5h-5l-1,9h-5l-1,16h-4l1,12l-3,9h-5v16h11l2,16h12v4.7l12-2.8l3.5,10h3.8l5.4-0.6
		l10.8,3.8l5.1-2.9l-0.2,7.6l2.5,1l4.3,1.7l0.9-0.5v0.8l7.1,2.8l13.9,2.8h0l0,0l8.9-0.9l0.1,0l6.9,3.8h6l6.9-1.9l0.1,0l5.1-4.8
		l3,11.2l7.8-5.5l5.3-13.2l0.1-0.2l7-0.9l2.8,1.1l0.5,0.2l3.7,1.5l12.8-5.6l0.3-0.1l0.3-8.6l-3.9-3.8l3.1-7.3l0.1-0.3l1.8-0.2
		l7.2-0.8l19.9,1l12.7,7.6l10.7,9.5l0,0l0.8,0l1,0l29.1-0.9l17.9,2.8l8.6,0.4l0.2,0l0-0.4v0.1l-0.3-1.8l-0.8-4.4l-1-5l0.5,4.1
		l0.5,6.5l-7.6-0.3l-17.8-2.8h-0.2L751,1172l-10.4-9.2l-0.1-0.1h-0.1l-12.7-7.6l-0.2-0.1h-0.3l-19.9-0.9h-0.2l-9,1l-0.6,0.1
		l-0.2,0.5l-3.2,7.6l-0.3,0.6l0.5,0.5l3.6,3.5l-0.2,7.5l-12.1,5.3l-6.5-2.7l-0.2-0.1h-0.3l-7,1l-0.6,0.1l-0.2,0.5l-5.2,13l-6.4,4.5
		l-2.6-9.8l-0.4-1.6l-1.2,1.1l-4.9,4.6l-6.7,1.8h-5.6l-6.6-3.7l-0.3-0.2h-0.3l-8.8,0.9l-13.6-2.8l-6.4-2.5v-2l-1.5,0.9l-0.4,0.3
		l-3.8-1.5l-1.9-0.7l0.2-6.9v-1.8l-1.5,0.9l-4.7,2.6l-10.4-3.7l-0.2-0.1h-0.2l-5.3,0.6h-3l-3.3-9.4l-0.3-0.8l-0.9,0.2l-10.8,2.5
		v-4.4h-12.1l-1.9-15.1l-0.1-0.9h-10.9v-14h4.7l0.2-0.7l3-9l0.1-0.2v-0.2l-0.9-10.9h3.8l0.1-0.9l0.9-15.1h5l0.1-0.9l0.9-8.1h5.1
		v-5.8l0.6-1.3l25.4-2l0.9-0.1v-0.9l1-24v-0.3l-0.2-0.3l-3-5l-0.2-0.2l-6-5l-0.3-0.2h-3.4v-2.5l-0.4-0.3l-6-4l-0.3-0.2h-5.5
		l-0.8-4.2l-0.1-0.6l-0.6-0.2l-11-3h-11l-5-1.7l1.8-7.1l0.3-1.2h-7.6l-4.5-13.4l4.1-1.6l0.6-0.3V991l4.5-2.7l0.5-0.3v-10.6h9v-10
		h3.6l0.3-0.6l2.6-5.2l2.1,0.7l8.9,5l0.2,0.1h7.9l0.3-0.5l3.8-6.6l10.6-2.9l0.2-0.1l0.2-0.1l5-4l0.2-0.1l0.1-0.2l8.6-17.2l5.2,1.7
		h0.2l9.8,2l6.8,4.9l0.3,0.2h9.6l0.2-0.1l7-4h0.2l8.8-6.8l13.7-2h8.3l0.3-0.2l5-4l7-5l0.4-0.3v-8l10.5-6.7l16-9l10-6l18-10l0.1-0.1
		l0.1-0.1l10.9-10.9l9.8-4.9l15.9-5h0.1l0.1-0.1l16-11l7.9-4.9l12.8-3h0.2l8.2-2.9v17.9l-7.9,13.8l-6,11l-0.1,0.2v22.5l0.1,0.2
		l5.8,12.6l-2.8,5.6l-0.1,0.2v7.5l0.2,0.3l2.8,3.7l-2.9,22.6l-0.1,1.1h3.1v7.9l-2,12.9v0.4l3,14.9l-1,15.9v0.2l2,18.9l-1.9,11.1h0.3
		l0,0.2l0.3,1.2l0.1,0.4l2.2-13.2l-0.7-6.4l-1.3-12.6l1-16l-3-15l2-12.9l0-0.1v-9h-3l3-23l-3-4v-7l3-6l-6-13v-22L801.8,871.5z"/>
</g>
<g>
	<polygon class="st1" points="1294.6,1319 1253.3,1300 1215.9,1278.1 1111.5,1301.9 1078.8,1308.4 1071.8,1309.8 1067.7,1295.9 
		1067.5,1293.6 1038.3,1262 1025.9,1257 1019.5,1254.4 1013.1,1249 1016.8,1240.6 1017.5,1240.4 1017.3,1239.6 1021.5,1230.2 
		1023.8,1218.8 1025.1,1208.7 1008.6,1208.7 987.7,1214.3 979.1,1204.9 964.3,1199.2 956.4,1196.9 961.5,1189.1 956.1,1189.1 
		956.1,1173.7 959.1,1162.7 956.3,1149.5 961,1151.3 962.2,1142.1 959,1142.1 958.2,1140 964.1,1138 966.2,1115.1 956.1,1116.1 
		956.1,1112.1 964.1,1112.1 964.1,1109.1 969.9,1109.1 973.3,1100.3 970.1,1099.3 970.1,1090.2 990.1,1092.2 990.1,1066 997.1,1063 
		997.1,1058.7 1003.1,1063.7 1003.1,1055.1 1013.8,1055.1 1017.8,1052.1 1022.1,1052.1 1022.1,1063.1 1039.3,1063.1 1042.2,1069 
		1047.8,1071.3 1052.1,1062.8 1052.1,1052.1 1055.4,1052.1 1061.6,1057.3 1064.8,1054.1 1076.1,1054.1 1076.1,1063.1 1081.1,1063.1 
		1081.1,1052.1 1083.4,1052.1 1088.2,1056 1093.2,1062.9 1096.1,1066.9 1099.2,1080.9 1104.7,1085.5 1099,1088.4 1102.2,1098.1 
		1107.8,1098.1 1102.1,1109.5 1102.1,1116.9 1114.1,1127.9 1114.1,1150.2 1121.3,1149.2 1124.3,1157.3 1131.4,1155.2 1135.3,1162.1 
		1141.4,1162.1 1145.6,1166.3 1153.7,1159.2 1159.6,1162.2 1175.9,1152.1 1190.9,1140 1204.2,1132.9 1200.3,1123.9 1213.8,1119.1 
		1221.8,1113.1 1240.1,1109 1240.1,1102 1247.7,1098.1 1261.9,1098.1 1256.9,1110 1271.5,1113.1 1288.5,1116.1 1299.4,1120.1 
		1313.9,1128.4 1321.9,1104.2 1344.5,1110.1 1373.7,1110.1 1358.7,1246.2 1355.8,1278.5 1328.6,1333.1 	"/>
	<path class="st2" d="M1083.3,1052.6l4.6,3.7l4.9,6.9l2.9,3.8l3,13.8l0.1,0.3l0.3,0.2l4.8,4l-4.6,2.3l-0.8,0.4l0.3,0.8l3,9l0.2,0.7
		h0.7h4.4l-5.3,10.6l-0.1,0.2v0.2v7v0.4l0.3,0.3l11.7,10.7v21.6v1.2l1.1-0.2l6.2-0.9l2.7,7.2l0.3,0.9l0.9-0.3l6.2-1.8l3.6,6.3
		l0.3,0.5h0.6h5.6l3.7,3.7l0.7,0.7l0.7-0.6l7.5-6.6l5.4,2.7l0.5,0.3l0.5-0.3l16-10l0,0l0,0l14.9-11.9l12.9-7l0.8-0.4l-0.4-0.8
		l-3.6-8l13-4.6l0.1-0.1l0.1-0.1l7.8-5.9l17.8-4l0.8-0.2v-0.8v-6.4l7.2-3.6h13.3l-4.4,10.6l-0.5,1.1l1.2,0.3l14,3l16.9,3l10.8,3.9
		l13.9,8l1.1,0.6l0.4-1.2l7.7-23.1l22.1,5.8h0.1h0.1h28.5l-14.9,135.5l-2.9,32.2l-27,54.2l-33.6-13.9l-41.3-19l-37.2-21.9l-0.3-0.2
		l-0.4,0.1l-104.2,23.8l-32.6,6.5l0,0h-0.1l-6.6,1.3l-4-13.4l-0.2-2.1v-0.3l-0.2-0.3l-29-31.4l-0.2-0.2l-0.2-0.1l-12.3-5l-6.3-2.6
		l-6.1-5.1l3.5-7.8l1-0.3l-0.3-1l-0.1-0.2l4.1-9.1v-0.1v-0.1l1.9-9.4l0.4-2l0,0l0,0l1.3-9.5l0.2-1.1h-1.1h-15.9h-0.1h-0.1l-20.5,5.6
		l-8.3-9.1l-0.2-0.2l-0.2-0.1l-14.8-5.7l0,0l0,0l-7.2-2.1l4.2-6.4l1-1.6h-1.9h-4v-14.9l3-10.9l0.1-0.2l-0.1-0.2l-2.6-12.2l3.3,1.3
		l1.2,0.5l0.2-1.3l1-8l0.1-1.1h-1.1h-2.3l-0.5-1.4l5.1-1.7l0.6-0.2l0.1-0.7l2-22l0.1-1.2l-1.2,0.1l-8.9,0.9v-2.9h7h1v-1v-2h5h0.7
		l0.2-0.6l3-8l0.4-1l-1-0.3l-2.3-0.8v-8.2l18.9,1.9l1.1,0.1v-1.1V1066l6.4-2.7l0.6-0.3v-0.7v-2.9l4.4,3.6l1.6,1.4v-2.1v-7h10h0.3
		l0.3-0.2l3.7-2.8h3.7v10v1h1h16.4l2.7,5.4l0.2,0.3l0.4,0.1l5,2l0.9,0.3l0.4-0.8l4-8l0.1-0.2v-0.2v-10h2.6l5.7,4.8l0.7,0.6l0.6-0.6
		l2.7-2.7h10.6v8v1h1h4h1v-1v-10h2.1 M1083.6,1051.6h-3v11h-4v-9h-12l-3,3l-6-5h-4v11l-4,8l-5-2l-3-6h-17v-11h-5l-4,3h-11v8l-6-5v5
		l-7,3v26l-20-2v10l3,1l-3,8h-6v3h-8v5l10-1l-2,22l-6,2l1,3h3l-1,8l-5-2l3,14l-3,11v16h5l-5,7.5l8.5,2.5l14.8,5.7l8.7,9.5l21.1-5.7
		h15.9l-1.3,9.5l-0.4,2l-1.9,9.5l-4.2,9.4l0.1,0.6l-0.5,0.1l-4,8.9l6.8,5.7l6.4,2.6l12.3,5l29,31.4l0.2,2.2l4.3,14.4l7.5-1.5l0,0
		l32.7-6.5l104.3-23.8l37.2,21.9l41.3,19l34.5,14.3l27.5-55.2l2.9-32.3l15-136.6h-29.6l-23-6l-8,24l-14-8l-11-4l-17-3l-14-3l5-12
		h-15l-8,4v7l-18,4l-8,6l-14,5l4,9l-13,7l-15,12l-16,10l-6-3l-8,7l-4-4h-6l-4-7l-7,2l-3-8l-7,1v-22l-12-11v-7l6-12h-6l-3-9l6-3l-6-5
		l-3-14l-3-4l-5-7L1083.6,1051.6L1083.6,1051.6z"/>
</g>
<g>
	<polygon class="st1" points="956.9,747.2 947.1,746.2 947.1,736.2 927.8,735.2 923.1,731.4 923.1,723.4 917.4,720 913.2,727.4 
		908.4,733.1 905.1,732.3 905.1,660 917.9,654 923.3,645.5 914.1,639.4 913.1,631.6 914.1,622.7 916.1,613.6 914,605.4 909,601.3 
		905.1,596.5 905.1,584.8 911,575 919.8,569.1 935.2,564 931.1,549.5 929.1,539.5 924.9,531.1 916.8,531.1 908,525.3 905,513.3 
		896.7,509.1 887,509.1 883.1,491.5 879.1,480.8 882.2,469.5 886,465 894.1,456.9 896.1,444.7 896.1,428.3 896.8,426.6 897,420.2 
		897.2,419.2 897,419.2 897.6,399.9 905.3,373.4 926.2,336.3 942.9,308.8 978,263.2 988.1,242.7 1007.3,208.1 1024.1,190.6 
		1044.4,116.6 1068,90.2 1119.7,52.8 1165.8,38.6 1184.7,32.9 1187.3,108.2 1193.6,123.8 1219.2,170.7 1225.5,182.4 1246.9,236.4 
		1312.5,347.8 1353.9,433.3 1390.7,496.8 1339.4,514.2 1270.3,526.2 1264.4,533.1 1251.7,530.2 1209,512.3 1204.9,503.2 
		1186.7,501.2 1156.3,491 1150.2,505.4 1137.2,518.4 1120.1,555.5 1115,579.9 1124,585.9 1115.1,615.5 1101.1,673.6 1101.1,690.8 
		1110.4,708.5 1095.6,701.1 1064.2,720.3 1059.3,729.1 1051.4,729.1 1043.1,737.4 1043.1,743.9 1048.6,747.6 1043.5,750.1 
		959.9,753.1 	"/>
	<path class="st2" d="M1184.2,33.5l2.5,70.9l0.1,3.6v0.2l0.1,0.2l6.3,15.5v0.1v0.1l25.5,46.9l0,0l6.3,11.6l9.1,23v0.1l0,0l12.3,30.9
		v0.1v0.1L1312,348l41.4,85.6l0,0l0,0l36.4,63l-50.6,17.1l-68.9,12l-0.4,0.1l-0.2,0.3l-5.6,6.5l-12.3-2.8l-42.6-17.8l-3.8-8.6
		l-0.2-0.5l-0.6-0.1l-17.9-2l-29.9-10l-0.9-0.3l-0.4,0.8l-5.9,13.8l-12.9,12.9l-0.1,0.1l-0.1,0.2l-17,37v0.1v0.1l-5,24l-0.1,0.7
		l0.6,0.4l8.4,5.6l-8.8,29.3l0,0l0,0l-14,58v0.1v0.1v17v0.2l0.1,0.2l8.6,16.3l-13.2-6.6l-0.5-0.2l-0.5,0.3l-31,19l-0.2,0.1l-0.1,0.2
		l-4.7,8.5h-7.4h-0.4l-0.3,0.3l-8,8l-0.3,0.3v0.4v6v0.5l0.4,0.3l4.6,3l-4.3,2.1l-83.1,3l-2.7-5.4l-0.2-0.5l-0.5-0.1l-9.1-0.9v-9.1
		v-0.9h-0.9l-18.7-1l-4.4-3.5v-7.5v-0.6l-0.5-0.3l-5-3l-0.9-0.5l-0.5,0.9l-4,6.9l-4.5,5.4l-2.6-0.7v-71.6l12.4-5.7l0.3-0.1l0.2-0.3
		l5-8l0.5-0.8l-0.8-0.5l-8.6-5.7l-0.9-7.4l1-8.8l2-8.9l0.1-0.2l-0.1-0.2l-2-8l-0.1-0.3l-0.3-0.2l-4.9-3.9l-3.7-4.6v-11.4l5.7-9.6
		l8.7-5.8l14.9-5l0.9-0.3l-0.3-0.9l-4-14l-2-10v-0.1l-0.1-0.1l-4-8l-0.3-0.6h-0.6h-7.7l-8.4-5.6l-2.9-11.6l-0.1-0.4l-0.4-0.2l-8-4
		l-0.2-0.1h-0.2h-9.2l-3.8-17.2v-0.1v-0.1l-4-10.6l3.1-11l3.7-4.5l8-8l0.2-0.2l0.1-0.3l2-12v-0.1v-0.1v-16.3l0.6-1.5l0.1-0.2v-0.2
		l0.2-6.3l0.1-0.3l0.3-1.1H898l0.5-18.8l7.7-26.4l20.9-37l16.7-27.5l35.1-45.6l0.1-0.1v-0.1l10-20.3l19.1-34.6l16.7-17.3l0.2-0.2
		l0.1-0.2l20.2-73.8l23.5-26.3l51.6-37.3l46.1-14.1L1184.2,33.5 M1185.2,32.2l-19.5,6l-46.2,14.1l-51.8,37.5l-23.7,26.5l-20.3,74.1
		l-16.8,17.4l-19.2,34.8l-10,20.4l-35.2,45.6l-16.7,27.6l-21,37.1l-7.7,26.6l-0.6,19.8h0.1l-0.1,0.4l-0.2,6.4l-0.7,1.7v16.5l-2,12
		l-8,8l-3.8,4.7l-3.3,11.5l4.1,10.9l4,18h10l8,4l3,12l9,6h8l4,8l2,10l4,14l-15,5l-9,6l-6,10v12l4,5l5,4l2,8l-2,9l-1,9l1,8l9,6l-5,8
		l-13,6v73l4,1l5-6l4-7l5,3v8l5,4l19,1v10l10,1l3,6l84-3l6-3l-6-4v-6l8-8h8l5-9l31-19l16,8l-10-19v-17l14-58l9-30l-9-6l5-24l17-37
		l13-13l6-14l30,10l18,2l4,9l43,18l13,3l6-7l69-12l51.8-17.5l-37.1-64l-41.4-85.6l-65.6-111.3l-12.3-30.9l0,0l-9.2-23.1l-6.3-11.6
		l0,0L1194,124l-6.3-15.5l-0.1-3.6L1185.2,32.2L1185.2,32.2z"/>
</g>
<g>
	<polygon class="st1" points="1353.6,1062.1 1329.7,1060.1 1317.9,1056.2 1308,1045.3 1295.1,1032.4 1295.1,1016.5 1290.9,1010.2 
		1281.9,1007.2 1273.6,998.9 1269.4,1003.1 1262.8,1003.1 1258,998.3 1250.8,992.2 1242.9,990.2 1240.1,987.5 1243.2,968.2 
		1222.9,965.2 1217.6,956.6 1213.4,965 1204.3,960.4 1211.3,948.4 1192.1,941.3 1192.1,926.5 1187.1,920.5 1189.2,907.1 
		1183.2,907.1 1184,902.1 1188,902.1 1192.1,889.6 1189,880.3 1175.1,875.3 1175.1,860.2 1149.1,854.2 1149.1,849.1 1143.3,849.1 
		1149.2,832.4 1145.5,829.9 1136.4,844 1129.4,840.5 1137.1,832.8 1137.1,816.5 1132.2,808.7 1137.2,802.7 1132.2,791.8 
		1137.1,786.8 1137.1,778.9 1145.7,772.2 1154.6,775.6 1151.3,769 1155.3,768.2 1159.3,775.1 1174.1,775.1 1174.1,771 1180.5,769.2 
		1184.4,772.1 1191.6,775.2 1198.3,772.9 1195.3,767 1215.1,762 1215.1,749.1 1219.1,749.1 1219.1,741.1 1243.6,741.1 1332.6,736.1 
		1423.5,733.7 1426.1,733.7 1416.9,808.7 1413.6,832.8 1401.9,917.1 1380.2,1050.3 1378.9,1062.1 	"/>
	<path class="st2" d="M1425.5,734.2l-9,74.5l-3.3,23.9v0.1l-11.7,84.3l-21.7,133.1l0,0l0,0l-1.3,11.4h-24.8l-23.8-2l-11.6-3.9
		l-9.9-10.8l-12.7-12.7v-15.6v-0.3l-0.2-0.3l-4-6l-0.2-0.3l-0.3-0.1l-8.8-2.9l-7.8-7.8l-0.7-0.7l-0.7,0.7l-3.7,3.7h-6.2l-4.7-4.7
		l0,0l0,0l-7-6l-0.2-0.2l-0.2-0.1l-7.7-1.9l-2.4-2.4l2.9-18.5l0.2-1l-1-0.1l-19.5-2.9l-4.8-7.6l-0.9-1.5l-0.8,1.6l-3.6,7.1l-8.2-4.1
		l6.5-11.1l0.6-1l-1.1-0.4l-18.3-6.8v-14.3v-0.4l-0.2-0.3l-4.7-5.7l1.9-12.6l0.2-1.2h-1.2h-4.8l0.7-4h3.2h0.7l0.2-0.7l4-12l0.1-0.3
		l-0.1-0.3l-3-9l-0.2-0.5l-0.5-0.2l-13.3-4.8v-14.3v-0.8l-0.8-0.2l-25.2-5.8v-4.2v-1h-1h-4.6l5.5-15.7l0.3-0.7l-0.6-0.4l-3-2
		l-0.8-0.6l-0.5,0.9l-8.5,13.2l-6-3l7-7l0.3-0.3v-0.4v-16V816l-0.2-0.2l-4.6-7.4l4.5-5.4l0.4-0.5l-0.3-0.6l-4.7-10.4l4.5-4.5
		l0.3-0.3v-0.4v-7.5l8.2-6.4l7.5,2.8l2.4,0.9l-1.1-2.3l-2.4-4.8l3-0.6l3.6,6.4l0.3,0.5h0.6h14h1v-1v-3.2l5.8-1.7l3.6,2.7l0.1,0.1
		h0.1l7,3l0.3,0.1l0.4-0.1l6-2l1.1-0.4l-0.5-1l-2.4-4.9l18.8-4.7l0.8-0.2v-0.8v-12h3h1v-1v-7h24l0,0l0,0l89-5l90.9-2.4L1425.5,734.2
		 M1426.6,733.2l-3.1,0.1l-90.9,2.4l-89,5h-25v8h-4v13l-20,5l3,6l-6,2l-7-3l-4-3l-7,2v4h-14l-4-7l-5,1l3,6l-8-3l-9,7v8l-5,5l5,11
		l-5,6l5,8v16l-8,8l8,4l9-14l3,2l-6,17h6v5l26,6v15l14,5l3,9l-4,12h-4l-1,6h6l-2,13l5,6v15l19,7l-7,12l10,5l4-8l5,8l20,3l-3,19l3,3
		l8,2l7,6l5,5h7l4-4l8,8l9,3l4,6v16l13,13l10,11l12,4l24,2h25.8l1.4-12.3l21.7-133.2l11.7-84.3v-0.1l3.3-24L1426.6,733.2
		L1426.6,733.2z"/>
</g>
<g>
	<polygon class="st1" points="1159.9,774.1 1155.9,767.1 1149.9,768.3 1152.6,773.7 1145.9,771.2 1138.9,760.2 1134,759.2 
		1131,744.1 1123.1,744.1 1123.1,719.4 1112,709.3 1102.1,690.5 1102.1,673.7 1116.1,615.8 1125.2,585.4 1116.2,579.4 1121.1,555.8 
		1138,518.9 1151,505.9 1156.9,492.3 1186.5,502.1 1204.3,504.1 1208.2,513 1251.4,531.1 1264.8,534.2 1270.9,527.1 1339.7,515.1 
		1391.2,497.7 1429.9,564.6 1437.1,574.6 1437.2,574.8 1444.2,584.5 1429,709.2 1429,709.2 1426.2,732.7 1332.6,735.1 1243.6,740.1 
		1218.1,740.1 1218.1,748.1 1214.1,748.1 1214.1,761.3 1193.9,766.3 1196.9,772.4 1191.6,774.1 1184.9,771.2 1180.7,768.1 
		1173.1,770.3 1173.1,774.1 	"/>
	<path class="st2" d="M1157.2,492.9l29.1,9.7h0.1h0.1l17.4,1.9l3.8,8.5l0.2,0.4l0.4,0.2l43,18h0.1h0.1l13,3l0.6,0.1l0.4-0.5l5.8-6.7
		l68.6-11.9h0.1h0.1l51.1-17.3l38.5,66.5l0,0l0,0l7.1,9.9l0,0l0.2,0.3l6.9,9.5L1428.8,709v0.1l-2.8,23l-93.2,2.5l-89,5h-25h-1v1v7
		h-3h-1v1v12.2l-19.2,4.8l-1.2,0.3l0.6,1.1l2.5,5l-4.5,1.5l-6.5-2.8l-3.9-2.9l-0.4-0.3l-0.5,0.1l-7,2l-0.7,0.2v0.8v3h-12.4l-3.7-6.5
		l-0.4-0.6l-0.7,0.1l-5,1l-1.3,0.3l0.6,1.2l1.9,3.7l-5.3-2l-6.8-10.7l-0.2-0.4l-0.4-0.1l-4.3-0.9l-2.9-14.3l-0.2-0.8h-0.8h-7v-24
		v-0.4l-0.3-0.3l-10.9-9.9l-9.8-18.6v-16.6l14-57.9l9-30l0.2-0.7l-0.6-0.4l-8.4-5.6l4.8-23.2l16.9-36.7l12.9-12.9l0.1-0.1l0.1-0.2
		L1157.2,492.9 M1156.6,491.6l-6,14l-13,13l-17,37l-5,24l9,6l-9,30l-14,58v17l10,19l11,10v25h8l3,15l5,1l7,11l8,3l-3-6l5-1l4,7h14
		v-4l7-2l4,3l7,3l6-2l-3-6l20-5v-13h4v-8h25l89-5l94-2.5l2.9-23.9l0,0l15.2-124.9l-7.1-9.8l0,0l-7.3-10.1l-38.9-67.2l-51.8,17.5
		l-69,12l-6,7l-13-3l-43-18l-4-9l-18-2L1156.6,491.6L1156.6,491.6z"/>
</g>
<g>
	<polygon class="st1" points="1141.8,1161.1 1135.9,1161.1 1131.8,1154.1 1124.9,1156 1121.9,1148.1 1115.1,1149.1 1115.1,1127.4 
		1103.1,1116.4 1103.1,1109.8 1109.4,1097.1 1103,1097.1 1100.2,1088.9 1106.5,1085.7 1100.1,1080.4 1097.1,1066.4 1094,1062.3 
		1089,1055.3 1083.9,1051.2 1076,1048.3 1075.2,1045.1 1085.1,1045.1 1085.1,1038.1 1075,1038.1 1074.2,1033.1 1081.1,1033.1 
		1082.2,1022.1 1065,1022.1 1063,1009.1 1059.1,1009.1 1058.1,998.1 1047.7,998.1 1038,994.3 1036,985.1 1033.1,985.1 1033.1,975.7 
		1036,966.9 1041.1,962.9 1041.1,949.3 1049.5,951.1 1063.8,955.2 1067.9,949.1 1073,949.1 1076.1,939.7 1073.1,929.5 1069,917.3 
		1060.2,912.9 1096.5,907.2 1110.6,913.2 1136.8,901.1 1154.1,889.9 1154.1,879.1 1165.7,879.1 1174.1,873.9 1174.1,876 1188.2,881 
		1191.1,889.6 1187.2,901.1 1183.2,901.1 1182,908.1 1188,908.1 1186.1,920.8 1191.1,926.8 1191.1,942 1209.9,948.9 1202.9,960.9 
		1213.8,966.3 1217.7,958.7 1222.3,966.1 1242,969.1 1239.1,987.8 1242.3,991.1 1250.4,993.1 1257.3,999 1262.4,1004.1 
		1269.8,1004.1 1273.6,1000.3 1281.3,1008.1 1290.3,1011.1 1294.1,1016.8 1294.1,1032.8 1307.3,1046 1317.3,1057.1 1329.5,1061.1 
		1353.6,1063.1 1378.8,1063.1 1373.8,1109.1 1344.7,1109.1 1321.3,1103 1313.3,1126.9 1299.9,1119.2 1288.8,1115.2 1271.7,1112.2 
		1258.3,1109.3 1263.4,1097.1 1247.5,1097.1 1239.1,1101.3 1239.1,1108.2 1221.4,1112.2 1213.4,1118.2 1198.9,1123.4 1203,1132.4 
		1190.4,1139.2 1175.3,1151.3 1159.6,1161.1 1153.5,1158 1145.6,1165 	"/>
	<path class="st2" d="M1173.6,874.8v0.8v0.7l0.7,0.2l13.5,4.8l2.7,8.2l-3.7,11h-3.3h-0.8l-0.1,0.8l-1,6l-0.2,1.2h1.2h4.8l-1.8,11.8
		l-0.1,0.4l0.3,0.3l4.8,5.7v14.6v0.7l0.7,0.2l17.9,6.6l-6.4,11l-0.5,0.9l1,0.5l10,5l0.9,0.4l0.4-0.9l3.2-6.4l4.1,6.5l0.2,0.4
		l0.5,0.1l19,2.9l-2.8,18l-0.1,0.5l0.4,0.4l3,3l0.2,0.2l0.3,0.1l7.8,1.9l6.8,5.8l5,5l0.3,0.3h0.4h7h0.4l0.3-0.3l3.3-3.3l7.3,7.3
		l0.2,0.2l0.2,0.1l8.7,2.9l3.6,5.5v15.7v0.4l0.3,0.3l13,13l10,11l0.2,0.2l0.2,0.1l12,4h0.1h0.1l24,2l0,0l0,0h24.7l-4.9,45H1345
		l-22.9-6l-0.9-0.2l-0.3,0.9l-7.6,22.8l-12.9-7.4h-0.1h-0.1l-11-4h-0.1h-0.1l-17-3l-12.8-2.7l4.5-10.9l0.6-1.4h-1.5h-15h-0.2
		l-0.2,0.1l-8,4l-0.6,0.3v0.6v6.2l-17.2,3.8h-0.2l-0.2,0.1l-7.9,5.9l-13.9,4.9l-1,0.4l0.4,1l3.6,8.2l-12.2,6.6h-0.1l-0.1,0.1l-15,12
		l-15.5,9.7l-5.5-2.7l-0.6-0.3l-0.5,0.4l-7.3,6.4l-3.3-3.3l-0.3-0.3h-0.4h-5.4l-3.7-6.5l-0.4-0.7l-0.8,0.2l-6.1,1.7l-2.7-7.1
		l-0.3-0.8l-0.8,0.1l-5.9,0.8v-20.8v-0.4l-0.3-0.3l-11.7-10.7v-6.3l5.9-11.8l0.7-1.4h-1.6h-5.3l-2.5-7.5l5.2-2.6l1.4-0.7l-1.2-1
		l-5.7-4.8l-2.9-13.7v-0.2l-0.1-0.2l-3-4l-5-7l-0.1-0.1l-0.1-0.1l-5-4l-0.1-0.1l-0.1-0.1l-7.5-2.8l-0.6-2.2h8.7h1v-1v-6v-1h-1h-9.2
		l-0.7-4h5.8h0.9l0.1-0.9l1-10l0.1-1.1h-1.1h-16.1l-1.9-12.2l-0.1-0.8h-0.9h-3.1l-0.9-10.1l-0.1-0.9h-0.9h-9.8l-9.3-3.7l-1.9-8.5
		l-0.2-0.8h-0.8h-2v-8.8l2.9-8.6l4.8-3.8l0.4-0.3v-0.5v-12.8l7.8,1.7l14,4l0.7,0.2l0.4-0.6l3.7-5.6h4.5h0.7l0.2-0.7l3-9l0.1-0.3
		l-0.1-0.3l-3-10l-4-12l-0.1-0.4l-0.4-0.2l-7.2-3.6l34.6-5.5l13.7,5.9l0.4,0.2l0.4-0.2l26-12h0.1h0.1l17-11l0.5-0.3v-0.5v-10h11h0.3
		l0.2-0.2L1173.6,874.8 M1174.6,873l-9,5.6h-12v11l-17,11l-26,12l-14-6l-38,6l10,5l4,12l3,10l-3,9h-5l-4,6l-14-4l-9-2v14l-5,4l-3,9
		v10h3l2,9l10,4h10l1,11h4l2,13h17l-1,10h-7l1,6h10v6h-10l1,4l8,3l5,4l5,7l3,4l3,14l6,5l-6,3l3,9h6l-6,12v7l12,11v22l7-1l3,8l7-2
		l4,7h6l4,4l8-7l6,3l16-10l15-12l13-7l-4-9l14-5l8-6l18-4v-7l8-4h15l-5,12l14,3l17,3l11,4l14,8l8-24l23,6h29.6l5.1-47h-25.8l-24-2
		l-12-4l-10-11l-13-13v-16l-4-6l-9-3l-8-8l-4,4h-7l-5-5l-7-6l-8-2l-3-3l3-19l-20-3l-5-8l-4,8l-10-5l7-12l-19-7v-15l-5-6l2-13h-6l1-6
		h4l4-12l-3-9l-14-5V873H1174.6z"/>
</g>
<polygon class="st1" points="794.6,882.4 794.6,904.9 794.7,905.1 800.5,917.7 797.7,923.3 797.6,923.5 797.6,931 797.8,931.3 
	800.6,935 797.7,957.6 797.6,958.7 800.7,958.7 800.7,966.6 798.7,979.5 798.7,979.9 801.7,994.8 800.7,1010.7 800.7,1010.9 
	802.7,1029.8 800.8,1040.9 748,1040.9 748,1054.7 755,1054.7 753,1068.4 765,1070.6 765,1092.1 770.9,1092.1 778.8,1100.7 
	778.8,1114.8 803.1,1114.8 803.1,1124.3 796.9,1124.3 796.9,1140.1 801.8,1140.8 806.2,1163.7 806.7,1167.8 807.2,1174.3 
	799.6,1174 781.8,1171.2 781.6,1171.2 751,1172 740.6,1162.8 740.5,1162.7 740.4,1162.7 727.7,1155.1 727.5,1155 727.2,1155 
	707.3,1154.1 707.1,1154.1 698.1,1155.1 697.5,1155.2 697.3,1155.7 694.1,1163.3 693.8,1163.9 694.3,1164.4 697.9,1167.9 
	697.7,1175.4 685.6,1180.7 679.1,1178 678.9,1177.9 678.6,1177.9 671.6,1178.9 671,1179 670.8,1179.5 665.6,1192.5 659.2,1197 
	656.6,1187.2 656.2,1185.6 655,1186.7 650.1,1191.3 643.4,1193.1 637.8,1193.1 631.2,1189.4 630.9,1189.2 630.6,1189.2 
	621.8,1190.1 608.2,1187.3 601.8,1184.8 601.8,1182.8 600.3,1183.7 599.9,1184 596.1,1182.5 594.2,1181.8 594.4,1174.9 
	594.4,1173.1 592.9,1174 588.2,1176.6 577.8,1172.9 577.6,1172.8 577.4,1172.8 572.1,1173.4 569.1,1173.4 565.8,1164 565.5,1163.2 
	564.6,1163.4 553.8,1165.9 553.8,1161.5 541.7,1161.5 539.8,1146.4 539.7,1145.5 528.8,1145.5 528.8,1131.5 533.5,1131.5 
	533.7,1130.8 536.7,1121.8 536.8,1121.6 536.8,1121.4 535.9,1110.5 539.7,1110.5 539.8,1109.6 540.7,1094.5 545.7,1094.5 
	545.8,1093.6 546.7,1085.5 551.8,1085.5 551.8,1079.7 552.4,1078.4 577.8,1076.4 578.7,1076.3 578.7,1075.4 579.7,1051.4 
	579.7,1051.1 579.5,1050.8 576.5,1045.8 576.3,1045.6 570.3,1040.6 570,1040.4 566.6,1040.4 566.6,1037.9 566.2,1037.6 
	560.2,1033.6 559.9,1033.4 554.4,1033.4 553.6,1029.2 553.5,1028.6 552.9,1028.4 541.9,1025.4 530.9,1025.4 525.9,1023.7 
	527.7,1016.6 528,1015.4 520.4,1015.4 515.9,1002 520,1000.4 520.6,1000.1 520.6,991 525.1,988.3 525.6,988 525.6,977.4 
	534.6,977.4 534.6,967.4 538.2,967.4 538.5,966.8 541.1,961.6 543.2,962.3 552.1,967.3 552.3,967.4 560.2,967.4 560.5,966.9 
	564.3,960.3 574.9,957.4 575.1,957.3 575.3,957.2 580.3,953.2 580.5,953.1 580.6,952.9 589.2,935.7 594.4,937.4 594.6,937.4 
	604.4,939.4 611.2,944.3 611.5,944.5 621.1,944.5 621.3,944.4 628.3,940.4 628.5,940.4 637.3,933.6 651,931.6 659.3,931.6 
	659.6,931.4 664.6,927.4 671.6,922.4 672,922.1 672,914.1 682.5,907.4 698.5,898.4 708.5,892.4 726.5,882.4 726.6,882.3 
	726.7,882.2 737.6,871.3 747.4,866.4 763.3,861.4 763.4,861.4 763.5,861.3 779.5,850.3 787.4,845.4 800.2,842.4 800.4,842.4 
	808.6,839.5 808.6,857.4 800.7,871.2 794.7,882.2 "/>
<polygon class="st3" points="1083.5,1043.8 1073.2,1043.8 1073.5,1045 1074.5,1049 1074.6,1049.5 1075.1,1049.7 1079.5,1051.3 
	1079.5,1061.7 1077.5,1061.7 1077.5,1052.7 1064.1,1052.7 1063.8,1053 1061.4,1055.4 1056.1,1051 1055.8,1050.8 1050.4,1050.8 
	1050.4,1062.6 1046.9,1069.6 1043.1,1068.1 1040.3,1062.4 1040,1061.8 1023.4,1061.8 1023.4,1050.8 1017.1,1050.8 1016.8,1051 
	1013.1,1053.8 1001.4,1053.8 1001.4,1060.7 997,1057.1 995.4,1055.7 995.4,1062.1 989,1064.8 988.4,1065.1 988.4,1090.7 
	969.5,1088.8 968.4,1088.7 968.4,1100.5 969.1,1100.7 971.1,1101.4 968.7,1107.8 962.4,1107.8 962.4,1110.8 954.4,1110.8 
	954.4,1117.9 955.5,1117.8 964.3,1116.9 962.5,1137 957.1,1138.8 956.2,1139.1 956.5,1140 957.5,1143 957.7,1143.7 960.3,1143.7 
	959.6,1149.3 955.8,1147.8 954.1,1147.1 954.5,1148.9 957.4,1162.7 954.5,1173.5 954.5,1190.7 958.6,1190.7 955,1196 951.5,1194.9 
	943.8,1190.2 942.6,1189.4 942.3,1190.8 939.9,1204.1 939.9,1204.3 939.6,1215.8 928.7,1217.5 913.3,1210 913.1,1209.9 
	900.7,1209.9 895,1210.8 879.6,1205.2 869,1197.7 868.8,1197.6 868.6,1197.6 853,1193.8 836.6,1180.6 836.4,1180.4 821.6,1174.7 
	821.4,1174.6 821.2,1174.6 809,1174.1 808.5,1167.3 808.4,1166.2 808.4,1140.8 811,1121.1 816.9,1121.1 816.9,1103.3 834.6,1103.3 
	834.6,1088.2 851.1,1088.2 860.3,1081 871.4,1081 876.7,1075.7 876.7,1061.6 869.4,1058 862.2,1054.7 862.2,1067.5 837.3,1068.4 
	836.6,1055.4 828.7,1055.4 828.7,1040.9 818.2,1040.9 818.2,1055.4 812.3,1049.5 803.3,1049.5 802,1044.4 804.5,1029.6 
	804.5,1029.4 803.9,1024.1 803.2,1023.6 801.8,1010.5 802,1007.1 802,1010 808.1,1014.8 822.5,1014.8 819.8,1024.7 822.5,1026.6 
	822.5,1031.6 828.1,1034 828.2,1034.3 838.3,1028 856,1027 864,1030.9 872.6,1031.1 875.2,1036.3 877.5,1040.9 884,1038 
	896.5,1030.9 908.7,1027 922.2,1018.3 933,1007.1 938.7,1004 936,1001.3 936.5,1000.9 938.9,1000.9 956.9,982.9 959.5,982.9 
	959.5,986.3 960.8,985.9 963.5,985 967.5,983.7 967.5,973.5 974.3,969.6 977.3,961.5 981.1,958.7 981.8,958.1 981.3,957.3 
	974.7,947 990.7,932.5 994.3,935 994.9,934.7 1000.5,931.8 1002.6,933.2 1002.6,939.7 1005.6,939.7 1006,940.6 1007.6,946.9 
	1007.8,947.9 1008.8,947.7 1024.8,943.9 1026.6,950.9 1026.8,951.7 1032.6,951.7 1039.6,952.1 1039.6,962.2 1035,965.9 
	1034.8,966.1 1034.7,966.4 1031.7,975.4 1031.6,975.6 1031.6,986.8 1034.8,986.8 1036.6,995 1036.7,995.5 1037.2,995.7 
	1047.2,999.7 1047.4,999.8 1056.7,999.8 1057.6,1009.9 1057.7,1010.8 1061.7,1010.8 1063.6,1023 1063.7,1023.8 1080.5,1023.8 
	1079.7,1031.8 1072.4,1031.8 1072.6,1033 1073.6,1039 1073.7,1039.8 1083.5,1039.8 "/>
<polygon class="st4" points="967.5,983.7 963.5,985 966.8,983.9 "/>
<polygon class="st4" points="974.3,969.6 967.5,973.5 970,971.8 973.9,969.8 "/>
<polygon class="st4" points="977.3,961.5 974.3,969.6 974.4,969.2 "/>
<polygon class="st4" points="994.3,935 990.7,932.5 974.7,947 990.5,932.1 993.8,934.6 "/>
<polygon class="st4" points="1006,940.6 1005.6,939.7 1005.8,939.7 "/>
<g>
	<path class="st1" d="M523.1,1242.3l-8-4v-5l-10.4-4.2h-11.8l-8.9-12.8l-11.1-17.1l-15.1-6.1l-8.1-4h-12.5l2-9.8l-9.4-3.1l-20.1-4
		l-19.5,3.1v5.1l-6,2.6v-2.7h-16v-8h-12v-18h-11.6l-7.9,4.9l-5.1-3l-4.4,4.4v7.4l-6.2-2.7l-9.9-10.9l-4.2-7.3l-14,3l-3.8-6.6v-3.6
		l-12.6,4.2h-6.8l-6.1-4.1l-3.6,1.8l-0.8-1.1l4.9-4.9l-2.1-9.7h-5.9v-9.3l6.2-8.2l-5.9-4.9l2.5-1.7l3.2-4.2v-4.7h-6.4l-5.5-1.8
		l0.9-6l11.1,3v-8.2h-6.5c0,0-3.8,0-5.6-1.9c-0.2-0.2-0.2-0.3-0.2-0.4c0.3-1,3.6-2.2,5.9-2.8l0.5-0.1l-5.3-13.8h-1.8v-10H229l-3-9
		h-7.1l-6.7-7.7v-18.3h4.1l-1-4h8.4l-7.4-9.5l4.2-5.2l-5.1-2l2.8-4.7l-3.8-7.5h2.4l3.3-4.4l-3.2-7.5l-5.6-2.1h0.7V962l7.6-4.8h8
		l3.3-1.3l7.4,6.6l36.1,2.9l31.4-21.8l35.2,20.9l47.9-23l-2.6-9.6l23.9-15.8l19.3,7.8l-0.5-4.1l-0.3-2.8l-1.6-13.6l2,7.3l6.4,1.6
		l13,2l11,3h14.7l2.9,9.6v4.2l6.3,4.2h7.7v3.8l7.5,3.2l6.5-3.2V936l9.5-2.9l7.7,1.9l3.8,6.7v6.4h10.7l3.8-2.8l2.7,2.7l8.9,12.9
		l2.6,5.2h-2.1l-8.9-4.9l-3.5-1.2l-3.1,6.1H533v10h-9v11.2l-5,3v8.9l-5.1,2l5.3,15.8h6.7l-2,7.8l6.5,2.2h11l10.6,2.9l1,5.1h6.3
		l5.7,3.8v3.2h4.3l5.8,4.8l2.9,4.8l-1,23.4l-25.8,2l-1.2,2.4v4.6h-4.9l-1,9h-5l-1,16H534l1,12.4l-2.9,8.6H527v17h11.1l2,16H552v3.8
		l-3.9,0.9l-2.3,7l1.5,14.9l-17,4.7l-1.3,10.9l6.8,47.6l-5.3-0.8l-7.5,0.9L523.1,1242.3L523.1,1242.3z"/>
	<path class="st2" d="M428.4,910.2l0.1,0.2l0.2,0.6l0.6,0.1l6.1,1.5l0,0l0,0l12.9,2l10.9,3h0.1h0.1h14.3l2.7,9.1v3.9v0.5l0.4,0.3
		l6,4l0.3,0.2h0.3h7v3v0.7l0.6,0.3l7,3l0.4,0.2l0.4-0.2l6-3l0.6-0.3v-0.6v-2.3l9-2.7l7.3,1.8l3.7,6.4v5.7v1h1h10h0.3l0.3-0.2
		l3.3-2.5l2.3,2.3l8.9,12.9l2.2,4.5h-1.1l-8.8-4.9h-0.1h-0.1l-3-1l-0.8-0.3l-0.4,0.8l-2.7,5.4h-3.4h-1v1v9h-8h-1v1V987l-4.5,2.7
		l-0.5,0.3v0.6v8.3l-4.4,1.7l-0.9,0.4l0.3,0.9l5,15l0.2,0.7h0.7h5.7l-1.7,6.8l-0.2,0.9l0.9,0.3l6,2l0.2,0.1h0.2h10.9l10.3,2.8
		l0.9,4.4l0.2,0.8h0.8h5.7l5.3,3.5v2.5v1h1h3.6l5.6,4.7l2.8,4.6l-1,22.8l-25.1,1.9h-0.6l-0.3,0.5l-1,2l-0.1,0.2v0.2v4h-4h-0.9
		l-0.1,0.9l-0.9,8.1h-4.1h-0.9l-0.1,0.9l-0.9,15.1h-3.1h-1.1l0.1,1.1l1,11.8l-2.7,8.1h-4.3h-1v1v16v1h1h10.1l1.9,15.1l0.1,0.9h0.9
		h11v2.9l-3.3,0.8l-0.5,0.1l-0.2,0.5l-2.2,6.7l-0.1,0.2v0.2l1.5,14.4l-16.3,4.5l-0.6,0.2l-0.1,0.7l-1.3,10.5v0.1v0.1l6.7,46.9
		l-4.5-0.7h-0.1h-0.1l-6.9,0.9v-9.9v-0.6l-0.6-0.3l-7.4-3.7v-4.4v-0.7l-0.6-0.3l-10-4l-0.2-0.1h-0.2h-11.5l-8.7-12.5l-11-17
		l-0.2-0.3l-0.3-0.1l-15-6l-8-4l-0.2-0.1h-0.2h-11.8l1.8-8.8l0.2-0.9l-0.8-0.3l-9-3h-0.1h-0.1l-20-4h-0.2H409l-19,3l-0.8,0.1v0.9
		v4.3l-5,2.1v-1.5v-1h-1h-15v-7v-1h-1h-11v-17v-1h-1h-11h-0.3l-0.2,0.2l-7.5,4.7l-4.5-2.7l-0.7-0.4l-0.6,0.6l-4,4l-0.3,0.3v0.4v6.5
		l-5.4-2.3l-9.8-10.8l-3.9-6.9l-0.4-0.6l-0.7,0.2l-13.3,2.8l-3.5-6.1v-2.7v-1.4l-1.3,0.4l-11.8,3.9h-6.5l-5.7-3.8l-0.5-0.3l-0.5,0.3
		l-2.9,1.5l-0.3-0.5l4.4-4.4l0.4-0.4l-0.1-0.5l-2-9l-0.2-0.8h-0.8h-5v-8.7l5.8-7.7l0.6-0.8l-0.7-0.6l-5-4.1l1.9-1.3l0.1-0.1l0.1-0.1
		l3-4l0.2-0.3v-0.3v-4v-1h-1h-5.8l-5.1-1.7l0.7-5.1l9.9,2.7l1.3,0.3v-1.3v-7v-1h-1h-6c0,0-3.6,0-5.3-1.7c0.5-0.6,3-1.7,5.5-2.3
		l1.1-0.3l-0.4-1.1l-5-13l-0.2-0.6h-0.7h-1v-9v-1h-1H229l-2.8-8.3l-0.2-0.7h-0.7h-6.5l-6.5-7.4v-17.6h3h1.3l-0.3-1.2l-0.7-2.8h6.7h2
		l-1.3-1.6l-6.5-8.4l3.5-4.4l0.8-1.1l-1.3-0.5l-3.9-1.6l2.4-4l0.3-0.5l-0.2-0.5l-3.3-6.6h1.4h0.5l0.3-0.4l3-4l0.3-0.5l-0.2-0.5l-3-7
		l-0.2-0.4l-0.4-0.1l-4.4-1.6v-0.4v-6.4l7.3-4.6h7.7h0.2l0.2-0.1l2.9-1.2l7,6.2l0.3,0.2h0.3l35.8,2.9h0.4l0.3-0.2l31-21.5l34.7,20.6
		l0.5,0.3l0.5-0.2l47.3-22.7l0.7-0.4l-0.2-0.8l-0.6-2.1l-1.8-6.8l23.3-15.5l18.2,7.4l1.6,0.6l-0.2-1.7l-0.4-3.3l-0.1-1.1l-0.2-1.6
		l0,0v-0.1L428.4,910.2 M425.8,896.3l1.6,13.3l0.9,7.3l0,0l0.2,1.7l0.1,1.1l0.4,3.3l-18.7-7.6l-23.9,15.9l-0.5,0.3l2,7.5l0.5,2.1
		l-47.3,22.7L305.8,943l-31.5,21.9l-35.8-2.9l-7.5-6.7l-0.2,0.1l-3.3,1.3h-8l-8,5v7h-3l8,3l3,7l-3,4h-3l4,8l-3,5l5,2l-4,5l7,9h-8
		l1,4h-4v19l7,8h7l3,9h20v10h2l5,13c0,0-8,2-6,4s6,2,6,2h6v7l-11-3l-1,7l6,2h6v4l-3,4l-3,2l6,5l-6,8v10h6l2,9l-5,5l1.3,1.8l3.7-1.8
		l6,4h7l12-4v3l4,7l14-3l4,7l10,11l7,3v-8l4-4l5,3l8-5h11v18h12v8h16v3l7-3v-5l19-3l20,4l9,3l-2,10h13l8,4l15,6l11,17l9,13h12l10,4
		v5l8,4v11l8-1l5.9,0.9l-6.9-48.2l1.3-10.5l17.1-4.8l-1.6-15.2l2.2-6.7l4.1-1v-4.7h-12l-2-16h-11v-16h5l3-9l-1-12h4l1-16h5l1-9h5v-5
		l1-2l26-2l1-24l-3-5l-6-5h-4v-3l-6-4h-6l-1-5l-11-3h-11l-6-2l2-8h-7l-5-15l5-2v-9l5-3v-11h9v-10h4l3-6l3,1l9,5h3l-3-6l-9-13l-3-3
		l-4,3h-10v-6l-4-7l-8-2l-10,3v3l-6,3l-7-3v-4h-8l-6-4v-4l-3-10h-15l-11-3l-13-2l-6.1-1.5L425.8,896.3L425.8,896.3z"/>
</g>
<g>
	<polygon class="st1" points="555.9,966.1 553.1,960.4 544,947.4 540.6,944 536.4,947.1 527.1,947.1 527.1,941.5 522.9,934.2 
		514.6,932.1 504.1,935.3 504.1,938.3 498.6,941.1 492.1,938.3 492.1,934.1 483.8,934.1 478.1,930.4 478.1,926.6 475,916.1 
		459.7,916.1 448.7,913.2 435.7,911.1 429.9,909.7 426.2,896.1 425.5,894.8 425.5,894.8 417.9,881.2 445.2,858.5 447.6,846.2 
		481.3,823.2 464,786.4 430,791.1 427.1,786.4 418.6,786.4 421.8,776.8 423.7,771.1 430.6,767.4 450.7,764.5 472.3,739.8 
		480.2,737.9 492.3,731.3 509.2,735.1 518.8,725.2 518.1,721.1 522.4,721.1 527.4,725.1 535.1,725.1 535.1,719.1 545.7,719.1 
		552.9,717.1 558,709.9 563.9,703 567.7,700.2 575.4,704.1 583.2,710 585.4,715.4 591.1,711.9 591.1,710.1 598.8,710.1 602.9,706.1 
		607.1,704 607.1,697.1 610.3,697.1 612.2,701.9 615.8,705.6 609.5,709.8 613.5,711.1 616.7,711.1 627.2,706.9 624.3,699 
		629.3,697.3 632.2,704.1 640.1,706.3 640.1,703 643.4,702.2 646.4,707.3 651.7,705.1 655.3,705.1 658.3,710.1 663.8,711.2 
		668.7,706.2 678.1,710.4 678.1,703.1 684.1,703.1 684.1,710.3 674.1,714.3 673.1,725.1 676.9,725.1 673,734.7 676.9,741.5 
		669.5,746.1 665.9,746.1 667.9,753.1 658.9,753.1 661.2,760.9 672,771.8 670.3,776.1 663.1,776.1 663.1,783.4 656.8,787.6 
		663.7,793.3 670.6,785.4 673.1,788.8 672,793 683.9,796 679.1,808.5 677.1,825.4 670.8,830.6 678.2,836.9 681.1,849.5 678,852.5 
		680.3,857.1 684.3,857.1 689.8,869.1 684,869.1 686.2,881.1 690.4,881.1 703,893.8 697.3,897.2 681.4,906.2 670.1,913.4 
		670.1,921.4 663.3,926.2 658.4,930.1 650.6,930.1 636.4,932.2 627.3,939.2 620.5,943.1 611.8,943.1 604.8,938.2 594.7,936.2 
		588.3,934 579.2,952.3 574.4,956.2 563.3,959.2 559.3,966.1 	"/>
	<path class="st2" d="M609.9,697.6l1.7,4.4l0.1,0.2l0.1,0.1l3.1,3.1l-5,3.3l-1.7,1.1l1.9,0.6l3,1l0.2,0.1h0.2h3h0.2l0.2-0.1l10-4
		l0.9-0.4l-0.3-0.9l-2.6-7l4.1-1.4l2.6,6.2l0.2,0.4l0.5,0.1l7,2l1.3,0.4v-1.3v-2.2l2.5-0.6l2.6,4.4l0.4,0.7l0.8-0.3l4.8-1.9h3.2
		l2.7,4.5l0.2,0.4l0.4,0.1l5,1l0.5,0.1l0.4-0.4l4.5-4.5l8.4,3.7l1.4,0.6v-1.5v-6h5v6.3l-9.4,3.7l-0.6,0.2l-0.1,0.6l-1,10l-0.1,1.1
		h1.1h2.5l-3.5,8.6l-0.2,0.4l0.2,0.4l3.5,6.2l-6.9,4.3h-2.7h-1.3l0.4,1.3l1.6,5.7h-7.7h-1.3l0.4,1.3l2,7l0.1,0.2l0.2,0.2l10.5,10.5
		l-1.5,3.8h-6.3h-1v1v6.5l-5.6,3.7l-1.1,0.7l1,0.9l6,5l0.7,0.6l0.6-0.7l6.2-7.1l2,2.6l-0.9,3.5l-0.2,1l1,0.2l10.9,2.7l-4.6,11.9v0.1
		v0.1l-2,16.6l-5.7,4.7l-0.9,0.8l0.9,0.8l6.8,5.8l2.8,12.1l-2.6,2.6l-0.5,0.5l0.3,0.6l2,4l0.3,0.6h0.6h3.4l5.1,11h-4.4h-1.2l0.2,1.2
		l2,11l0.1,0.8h0.8h3.6l12.1,12.1l-5.1,3.1l-16,9l0,0l0,0l-11,7l-0.5,0.3v0.5v7.5l-6.6,4.7l0,0l0,0l-4.7,3.8h-7.6h-0.1h-0.1l-14,2
		H636l-0.2,0.2l-8.9,7l-6.7,3.8h-8.4l-6.7-4.8l-0.2-0.1h-0.2l-9.9-2l-5.9-2l-0.8-0.3l-0.4,0.8l-8.9,17.8l-4.7,3.7l-10.8,2.9
		l-0.4,0.1l-0.2,0.4l-3.7,6.5h-2.8l-2.7-5.4v-0.1v-0.1l-9-13l-0.1-0.1l-0.1-0.1l-3-3l-0.6-0.6l-0.7,0.5l-3.7,2.8h-8.7v-5v-0.3
		l-0.1-0.2l-4-7l-0.2-0.4l-0.4-0.1l-8-2l-0.3-0.1l-0.3,0.1l-10,3l-0.7,0.2v0.7v2.4l-5,2.5l-6-2.6V934v-1h-1h-7.7l-5.3-3.5V926v-0.1
		v-0.1l-3-10l-0.2-0.7h-0.7h-14.9l-10.9-3h-0.1h-0.1l-13-2l-5.5-1.4l-3.6-13.3v-0.1l-0.1-0.1l-0.6-1.2l-0.1-0.1l0,0l-7.4-13.2
		l0.3-0.3l26.6-22l0.3-0.2l0.1-0.4l2.3-12l28.5-19.4l4.7-3.2l0.7-0.5l-0.4-0.8l-3.7-7.9l-13.2-28.2l-0.3-0.7l-0.7,0.1l-33.3,4.7
		l-2.5-4.2l-0.3-0.5h-0.6h-7.6l3-8.9l1.9-5.5l6.6-3.5l19.8-2.8l0.4-0.1l0.2-0.3l21.4-24.5l7.7-1.8h0.1l0.1-0.1l11.8-6.5l16.5,3.7
		l0.5,0.1l0.4-0.4l9.2-9.5l0.4-0.4l-0.1-0.5l-0.6-3.3h3.6l4.7,3.8l0.3,0.2h0.4h7h1v-1v-5h10h0.1h0.1l7-2l0.3-0.1l0.2-0.3l5-7
		l5.9-6.9l3.4-2.6l7.4,3.7l7.7,5.8l1.9,4.7l0.4,1.1l1-0.6l5-3l0.5-0.3v-0.6v-1h7h0.4l0.3-0.3l3.9-3.9l3.9-1.9l0.6-0.3v-0.6v-6h2.3
		 M629.6,696.6l-6,2l3,8l-10,4h-3l-3-1l6-4l-4-4l-2-5h-4v7l-4,2l-4,4h-8v2l-5,3l-2-5l-8-6l-8-4l-4,3l-6,7l-5,7l-7,2h-11v6h-7l-5-4
		h-5.1l0.8,4.4l-9.2,9.5l-16.8-3.8l-12.1,6.7l-8,1.9L450.6,764l-20,2.9l-7.1,3.8l-2,5.9l-3.5,10.3h9l2.9,4.8l34-4.8l13.2,28.2
		l3.7,7.9l-4.7,3.2l-28.8,19.6l-2.3,12.4l-26.6,22l-1,0.8l7.9,14l0,0l0.6,1.2l3.7,13.8l6.1,1.5l13,2l11,3h15l3,10v4l6,4h8v4l7,3l6-3
		v-3l10-3l8,2l4,7v6h10l4-3l3,3l9,13l3,6h4l4-7l11-3l5-4l9-18l6,2l10,2l7,5h9l7-4l9-7l14-2h8l5-4l7-5v-8l11-7l16-9l6.3-3.8
		l-13.3-13.3h-4l-2-11h6l-6-13h-4l-2-4l3-3l-3-13l-7-6l6-5l2-17l5-13l-12-3l1-4l-3-4l-7,8l-6-5l6-4v-7h7l2-5l-11-11l-2-7h9l-2-7h3
		l8-5l-4-7l4-10h-4l1-10l10-4v-8h-7v7l-9-4l-5,5l-5-1l-3-5h-4l-5,2l-3-5l-4,1v3l-7-2L629.6,696.6L629.6,696.6z"/>
</g>
<g>
	<polygon class="st1" points="690.8,880.1 687,880.1 685.2,870.1 691.4,870.1 684.9,856.1 680.9,856.1 679.2,852.7 682.2,849.8 
		679.1,836.4 672.4,830.6 678.1,825.9 680.1,808.8 685.3,795.3 673.2,792.3 674.1,788.5 670.6,783.8 663.5,791.9 658.4,787.7 
		664.1,783.9 664.1,777.1 670.9,777.1 673.2,771.5 662,760.4 660.3,754.1 669.3,754.1 667.3,747.1 669.7,747.1 678.3,741.8 
		674.2,734.6 678.3,724.1 674.2,724.1 675.1,715 685.1,711 685.1,702.1 677.1,702.1 677.1,708.9 668.5,705 663.4,710.1 658.9,709.2 
		655.9,704.1 651.5,704.1 646.8,706 643.8,701.1 639.1,702.3 639.1,705 633,703.2 629.9,696 623,698.3 626,706.4 616.5,710.1 
		613.7,710.1 611.7,709.5 617.4,705.7 613,701.4 610.9,696.1 606.1,696.1 606.1,703.3 602.3,705.2 598.4,709.1 590.1,709.1 
		590.1,711.4 585.8,713.9 584,709.3 575.9,703.2 567.6,699.1 563.3,702.3 557.2,709.3 552.3,716.2 545.5,718.1 534.1,718.1 
		534.1,724.1 527.8,724.1 522.8,720.1 517.9,720.1 517.1,715.7 524.3,705.3 526.8,688.2 529.2,684.2 531,681.5 531.3,670.8 
		530.5,668.8 530.5,668.8 530.5,668.7 528.9,662.9 531.8,659.4 526.5,654.3 516.9,651.5 517.1,643.4 522.4,627.5 527.7,625.5 
		522.1,610.2 535.1,603.7 539.4,590.4 553.5,581 561.6,578.1 565.6,574.3 582.6,568.6 598.8,562 626.1,547.7 635.2,543 661,540.1 
		675.3,536.3 687.5,526.8 701.3,524.9 718.1,521.1 724.9,527.7 749.9,529.7 771.8,534.4 801.2,521.1 809.9,518.3 823.7,528.9 
		832.2,521 858.4,507.7 872.8,496.2 878.2,483.7 878.6,482.4 882.1,491.8 886.2,510.1 896.5,510.1 904.2,514 907.2,526 916.5,532.1 
		924.3,532.1 928.1,539.8 930.1,549.7 934,563.3 919.4,568.2 910.2,574.3 904.1,584.5 904.1,596.8 908.2,602 913.2,605.9 
		915.1,613.6 913.1,622.5 912.1,631.6 913.1,639.9 921.9,645.8 917.3,653.3 904.1,659.3 904.1,672.7 901.9,667 895.1,670.3 
		895.1,680.1 890.4,680.1 886.1,683.4 886.1,690.5 883.3,695.1 878.5,695.1 869.5,701.1 859.2,701.1 857.1,709.6 857.1,718.4 
		852.5,721.1 844.2,721.1 842.1,736.4 836.2,741.3 828.9,753.8 833.2,757 836,761.7 832.3,769.1 825.4,769.1 822.2,772.4 
		821.1,776.7 825.1,785.6 822.1,791.6 825.1,798.7 825.1,805.3 813.3,811.3 809.1,817.5 809.1,837.7 799.4,841.2 786.4,844.2 
		778.3,849.2 762.4,860.2 746.5,865.2 736.3,870.2 725.3,881.2 707.4,891.2 703.9,893.3 	"/>
	<path class="st2" d="M878.7,484l3,8l4,17.9l0.2,0.8h0.8h9.8l7.4,3.7l2.9,11.6l0.1,0.4l0.3,0.2l9,6l0.3,0.2h0.3h7.4l3.7,7.3l2,9.9
		l0,0l0,0l3.7,13.1l-14.1,4.7h-0.1l-0.1,0.1l-9,6l-0.2,0.1l-0.1,0.2l-6,10l-0.1,0.2v0.3v12v0.4l0.2,0.3l4,5l0.1,0.1l0.1,0.1l4.7,3.8
		l1.9,7.4l-1.9,8.8v0.1v0.1l-1,9v0.1v0.1l1,8l0.1,0.5l0.4,0.3l8.2,5.5l-4.3,6.9l-12.7,5.9l-0.6,0.3v0.6v10l-1.1-2.7l-0.4-1l-1,0.5
		l-6,3l-0.6,0.3v0.6v9h-4h-0.3l-0.3,0.2l-4,3l-0.4,0.3v0.5v6.7l-2.6,4.3H879h-0.3l-0.3,0.2l-8.7,5.8H860h-0.8l-0.2,0.8l-2,8v0.1v0.1
		v8.4l-4.3,2.6H845h-0.9l-0.1,0.9l-1.9,14.6l-5.7,4.8l-0.1,0.1l-0.1,0.2l-7,12l-0.4,0.8l0.7,0.5l3.8,2.9l2.6,4.4l-3.5,7H826h-0.4
		l-0.3,0.3l-3,3l-0.2,0.2l-0.1,0.3l-1,4l-0.1,0.3l0.1,0.3l3.8,8.6l-2.8,5.6l-0.2,0.4l0.2,0.4l2.9,6.8v6.2l-11.4,5.7l-0.2,0.1
		l-0.1,0.2l-4,6l-0.2,0.3v0.3v19.7l-9.3,3.3l-12.9,3h-0.2l-0.1,0.1l-8,5l-15.9,10.9l-15.9,5h-0.1h-0.1l-10,5l-0.1,0.1l-0.1,0.1
		L725,880.8l-17.9,9.9l-3.1,1.8l-12.7-12.7l-0.3-0.3h-0.4h-3.2l-1.6-9h4.8h1.6l-0.7-1.4l-6-13l-0.3-0.6h-0.6h-3.4l-1.4-2.8l2.5-2.5
		l0.4-0.4l-0.1-0.5l-3-13l-0.1-0.3l-0.2-0.2l-6.1-5.2l5.1-4.2l0.3-0.3v-0.4l2-16.9l5-12.9l0.4-1.1l-1.1-0.3l-11-2.8l0.8-3l0.1-0.5
		l-0.3-0.4l-3-4l-0.7-1l-0.8,0.9l-6.4,7.3l-4.2-3.5l4.9-3.3l0.4-0.3v-0.5v-6h6h0.7l0.3-0.6l2-5l0.2-0.6l-0.5-0.5l-10.8-10.8
		l-1.6-5.5h7.7h1.3l-0.4-1.3l-1.6-5.7h1.7h0.3l0.2-0.2l8-5l0.8-0.5l-0.5-0.8l-3.8-6.6l3.8-9.6l0.5-1.4h-1.5h-2.9l0.8-8.3l9.4-3.8
		l0.6-0.3v-0.7v-8v-1h-1h-7h-1v1v5.5l-7.6-3.4l-0.6-0.3l-0.5,0.5l-4.6,4.6l-4-0.8l-2.8-4.6l-0.3-0.5h-0.6h-4h-0.2l-0.2,0.1l-4.2,1.7
		l-2.6-4.3l-0.4-0.6l-0.7,0.2l-4,1l-0.8,0.2v0.8v1.7l-5.3-1.5l-2.8-6.6l-0.4-0.8l-0.9,0.3l-6,2l-1,0.3l0.4,1l2.7,7.1l-8.9,3.6h-2.6
		l-0.9-0.3l4.3-2.9l1-0.7l-0.9-0.9l-3.9-3.9l-1.9-4.8l-0.3-0.6h-0.7h-4h-1v1v6.4l-3.4,1.7l-0.1,0.1l-0.1,0.1l-3.7,3.7h-7.6h-1v1v1.4
		l-3.5,2.1l-1.6-3.9l-0.1-0.3l-0.2-0.2l-8-6l-0.1-0.1h-0.1l-8-4l-0.6-0.3l-0.5,0.4l-4,3l-0.1,0.1l-0.1,0.1l-6,7l0,0l0,0l-4.8,6.7
		l-6.5,1.9h-10.9h-1v1v5H528l-4.7-3.8l-0.3-0.2h-0.4h-4.3l-0.7-3.9l7-10.1l0.1-0.2v-0.2l2.4-16.9l2.4-3.9l1.6-2.6l0.1-0.2v-0.3
		l0.2-8V671v-0.6v-0.2l-0.1-0.2l-0.7-1.8v-0.1V668l-1.5-5.6l2.4-2.9l0.6-0.7l-0.7-0.6l-4.9-4.8l-0.2-0.2l-0.2-0.1l-2.9-0.8l-6.2-1.8
		l0.2-7.6l1.9-5.5l3.4-10l3.3-1.2l1.3-0.5l0.9-0.3l-0.3-0.9l-5.2-14.4l12.3-6.3l0.4-0.2l0.1-0.4l4.2-13l13.8-9.2l7.9-2.8l0.2-0.1
		l0.2-0.1l3.9-3.7l16.9-5.6l0,0l0,0l16.1-6.7l0,0l0,0l27.3-14.3l8.9-4.7l25.8-2.8h0.1h0.1l14-3.8l0.2-0.1l0.2-0.1l12-9.3l13.7-1.9
		l0,0l0,0l16.5-3.7l6.4,6.3l0.3,0.3h0.4l24.8,1.9l21.7,4.7l0.3,0.1l0.3-0.1l29.2-13.3l8.5-2.7l13.2,10.1l0.7,0.5l0.6-0.6l8.1-7.5
		l26.2-13.2h0.1l0.1-0.1l14.3-11.4l0.2-0.2l0.1-0.2L878.7,484 M878.5,480.8l-0.8,2.7l-5.3,12.4l-14.3,11.4l-26.3,13.3l-8.2,7.6
		L810,517.8l-9,2.8l-29.3,13.3l-21.8-4.8l-24.8-1.9l-6.8-6.7l-17,3.8l-14,1.9l-12.2,9.5l-14,3.8l-26,2.9l-9.1,4.8l-27.3,14.3
		l-16.1,6.7l-17.1,5.7l-4.1,3.8l-8.1,2.9L539,590l-4.4,13.3l-13.1,6.7l5.5,15.2l-1.3,0.5l-3.7,1.4l-3.5,10.5l-1.9,5.7l-0.2,8.6l7,2
		l2.9,0.8l4.9,4.8l-2.7,3.3l1.6,6.2l0,0l0,0l0,0l0.7,1.9v0.6l0,0v1.9l-0.2,8L529,684l-2.5,4l-2.5,17.1l-7.3,10.5l0.9,5.1h5.1l5,4h7
		v-6h11l7-2l5-7l6-7l4-3l8,4l8,6l2,5l5-3v-2h8l4-4l4-2v-7h4l2,5l4,4l-6,4l3,1h3l10-4l-3-8l6-2l3,7l7,2v-3l4-1l3,5l5-2h4l3,5l5,1l5-5
		l9,4v-7h7v8l-10,4l-1,10h4l-4,10l4,7l-8,5h-3l2,7h-9l2,7l11,11l-2,5h-7v7l-6,4l6,5l7-8l3,4l-1,4l12,3l-5,13l-2,17l-6,5l7,6l3,13
		l-3,3l2,4h4l6,13h-6l2,11h4L704,894l3.8-2.3l18-10l11-11l10-5l16-5l16-11l8-5l13-3l10-3.6v-20.4l4-6l12-6v-7l-3-7l3-6l-4-9l1-4l3-3
		h7l4-8l-3-5l-4-3l7-12l6-5l2-15h8l5-3v-9l2-8h10l9-6h5l3-5v-7l4-3h5v-10l6-3l3,7.7v-15.7l13-6l5-8l-9-6l-1-8l1-9l2-9l-2-8l-5-4
		l-4-5v-12l6-10l9-6l15-5l-4-14l-2-10l-4-8h-8l-9-6l-3-12l-8-4h-10l-4-18L878.5,480.8L878.5,480.8z"/>
</g>
<g id="huai">
	<polygon class="st4" points="1174.6,860.6 1174.6,873 1165.6,878.6 1153.6,878.6 1153.6,889.6 1136.6,900.6 1110.6,912.6 
		1096.6,906.6 1058.6,912.6 1068.6,917.6 1072.6,929.6 1075.6,939.6 1072.6,948.6 1067.6,948.6 1063.6,954.6 1049.6,950.6 
		1040.6,948.6 1040.6,951.1 1032.6,950.6 1027.6,950.6 1025.6,942.6 1008.6,946.6 1006,940.6 1005.6,939.7 1002.6,939.7 
		1002.6,933.2 1000.5,931.8 994.3,935 990.7,932.5 974.7,947 981.8,958.1 977.3,961.5 974.3,969.6 967.5,973.5 967.5,983.7 
		959.5,986.3 959.5,982.9 956.9,982.9 938.9,1000.9 936.5,1000.9 936,1001.3 930.3,995.9 895.2,958.1 877.1,943.8 873.4,954.9 
		862.2,952.3 857.4,948.5 850.5,949.1 845.3,959.7 834,961.3 823.3,960.3 823.3,982.1 836.1,986.3 832.4,993.3 815.8,991.7 
		802.2,991.7 799.8,979.5 801.8,966.6 801.6,966.6 801.6,957.6 798.6,957.6 801.6,934.6 798.6,930.6 798.6,923.6 801.6,917.6 
		795.6,904.6 795.6,882.6 801.6,871.6 809.6,857.6 809.6,817.6 813.6,811.6 825.6,805.6 825.6,798.6 822.6,791.6 825.6,785.6 
		821.6,776.6 822.6,772.6 825.6,769.6 832.6,769.6 836.6,761.6 833.6,756.6 829.6,753.6 836.6,741.6 842.6,736.6 844.6,721.6 
		852.6,721.6 857.6,718.6 857.6,709.6 859.6,701.6 869.6,701.6 878.6,695.6 883.6,695.6 886.6,690.6 886.6,683.6 890.6,680.6 
		895.6,680.6 895.6,670.6 901.6,667.6 904.6,675.3 904.6,732.6 908.6,733.6 913.6,727.6 917.6,720.6 922.6,723.6 922.6,731.6 
		927.6,735.6 946.6,736.6 946.6,746.6 956.6,747.6 959.6,753.6 1043.6,750.6 1049.6,747.6 1043.6,743.6 1043.6,737.6 1051.6,729.6 
		1059.6,729.6 1064.6,720.6 1095.6,701.6 1111.6,709.6 1122.6,719.6 1122.6,744.6 1130.6,744.6 1133.6,759.6 1138.6,760.6 
		1145.6,771.6 1136.6,778.6 1136.6,786.6 1131.6,791.6 1136.6,802.6 1131.6,808.6 1136.6,816.6 1136.6,832.6 1128.6,840.6 
		1136.6,844.6 1145.6,830.6 1148.6,832.6 1142.6,849.6 1148.6,849.6 1148.6,854.6 	"/>
</g>
<g>
	<polygon class="st5" points="521.2,669.9 526.1,687.1 528.8,684 530.5,681.3 530.7,673.4 530.7,671.5 530.7,671.5 530.8,670.9 
		530.1,669 530.1,669 530.1,668.9 530,668.9 528.4,662.8 531.1,659.5 526.2,654.7 523.3,653.9 516.4,651.9 	"/>
	<polygon class="st5" points="435.1,817.8 438,822.6 472,817.8 472.3,818.5 475.9,826.2 480.6,823 476.9,815.1 463.7,786.9 
		429.7,791.7 426.9,786.9 417.9,786.9 426.2,817.8 	"/>
	<polygon class="st5" points="428.2,916.8 428.2,916.8 427.4,909.6 425.8,896.3 425.1,895.1 425.1,895.1 417.2,881.1 425.5,912 	"/>
	<polygon class="st5" points="104.7,1154.4 101.2,1135.9 76.1,1070.3 40.8,982.8 49,1013.7 84.4,1101.2 	"/>
	<polygon class="st5" points="144.4,1309.5 148.1,1307.1 117.3,1233.9 125.6,1264.8 	"/>
	<polygon class="st5" points="685.6,1181.6 678.8,1178.7 671.8,1179.7 676.6,1197.9 680,1210.6 687,1209.6 693.9,1212.5 
		687.7,1189.1 	"/>
	<polygon class="st5" points="940.7,1216.8 928.7,1218.7 912.9,1211.1 901,1211.1 895,1212 879.2,1206.3 868.5,1198.7 852.6,1194.9 
		836.1,1181.6 821.3,1175.9 808.2,1175.3 799.4,1174.9 781.5,1172.1 750.6,1173 740,1163.5 727.2,1155.9 707.3,1155 698.3,1155.9 
		702.7,1172.3 702.9,1172.9 706.3,1185.8 706.6,1186.8 715.6,1185.9 735.5,1186.8 748.2,1194.4 758.9,1203.9 789.8,1203 
		807.7,1205.8 829.6,1206.8 844.4,1212.5 860.9,1225.8 876.7,1229.6 887.5,1237.2 903.3,1242.9 909.3,1242 921.2,1242 937,1249.6 
		949,1247.7 944.1,1229.7 	"/>
	<polygon class="st5" points="1016.9,1240.1 1016.8,1239.5 1021,1230.1 1022.9,1220.6 1023.3,1218.7 1024.6,1209.2 1008.6,1209.2 
		987.5,1214.9 978.8,1205.4 964.1,1199.7 955.6,1197.2 955.6,1197.2 951.2,1195.9 943.4,1191.1 950.6,1218 951.7,1222 959.5,1226.8 
		972.4,1230.6 987.1,1236.3 995.8,1245.8 1016.5,1240.2 	"/>
	<polygon class="st5" points="590.6,1187.1 588.1,1177.8 577.3,1174 571.9,1174.5 568.3,1174.9 568.1,1174.5 564.6,1164.5 
		552.6,1167.3 548.5,1168.3 556.8,1199.2 572.9,1195.4 576.6,1205.8 585.6,1204.9 596.4,1208.7 	"/>
	<polygon class="st5" points="530.9,1194.9 539.1,1225.8 556.2,1221.1 547.9,1190.2 	"/>
	<polygon class="st5" points="650.5,1192.1 643.5,1194 637.5,1194 630.6,1190.2 621.6,1191.1 607.8,1188.3 600.6,1185.5 
		599.7,1185.2 595.5,1183.5 593,1182.5 594.3,1187.6 599.5,1206.9 601.3,1213.4 616,1219.2 629.9,1222 638.9,1221.1 645.8,1224.9 
		651.7,1224.9 658.8,1223 653.7,1204 	"/>
	<polygon class="st5" points="521.4,1317.6 529.7,1348.5 544.9,1340.9 536.6,1310 	"/>
	<polygon class="st5" points="514.2,1324.3 522.5,1355.2 529.5,1355.2 521.2,1324.3 	"/>
	<polygon class="st5" points="501.4,1354.7 492.5,1353.7 500.8,1384.6 509.7,1385.6 518.7,1385.6 510.4,1354.7 	"/>
	<polygon class="st5" points="442.5,1396.5 446,1409.8 446,1409.9 450.8,1427.4 450.8,1427.5 454.7,1430.3 446.4,1399.4 	"/>
	<polygon class="st5" points="494.5,1389.9 488.4,1386.5 487.6,1386.1 480.6,1385.1 488.9,1416 495.9,1417 502.7,1420.8 
		497.3,1400.6 	"/>
	<polygon class="st5" points="471.3,1398.4 461.8,1382.3 456.8,1383.2 465.1,1414.1 470.1,1413.2 479.6,1429.3 486.6,1428.4 
		478.3,1397.5 	"/>
	<path class="st5" d="M433.7,1406.5l-24.3-22.8l0,0c-0.3-0.7-5.2-12.9-36.3-12.9c-3.7,0-7.7,0.2-12.1,0.6c-0.3,0-7-0.5-14.5-0.5
		c-5,0-10.3,0.2-13.9,1c-3.5,0.7-8.6,1.2-14.2,1.2c-8.8,0-18.6-1.1-24.6-4c-9.4-4.5-52.4-29.7-74.6-29.7c-21.5,2.7-41.1,5.2-48,5.2
		c-11.1-0.3-40.4,3.7-53.2,4.6c-0.4,0-0.8,0.1-1.3,0.1c-0.1,0-0.3,0-0.4,0c-0.3,0-0.6,0.1-0.9,0.1c-0.2,0-0.3,0-0.5,0.1
		c-0.3,0-0.6,0.1-0.9,0.1c-0.2,0-0.4,0.1-0.6,0.1c-0.3,0-0.6,0.1-0.9,0.1c-0.2,0-0.4,0.1-0.6,0.1c-0.3,0.1-0.6,0.1-1,0.2
		c-0.2,0-0.4,0.1-0.5,0.1c-0.4,0.1-0.8,0.1-1.2,0.2c-0.1,0-0.2,0-0.4,0.1c-0.5,0.1-1,0.2-1.6,0.3c-0.1,0-0.3,0.1-0.4,0.1
		c-0.4,0.1-0.8,0.2-1.2,0.3c-0.2,0-0.4,0.1-0.6,0.1c-0.3,0.1-0.7,0.2-1,0.2c-0.2,0-0.4,0.1-0.6,0.1c-0.3,0.1-0.7,0.2-1,0.2
		c-0.2,0.1-0.4,0.1-0.6,0.2c-0.3,0.1-0.7,0.2-1,0.3c-0.2,0.1-0.4,0.1-0.6,0.2c-0.4,0.1-0.7,0.2-1.1,0.3c-0.2,0-0.3,0.1-0.5,0.1
		c-0.5,0.1-1.1,0.3-1.6,0.4l0,0c-0.5,0.1-1.1,0.3-1.6,0.5c-0.2,0.1-0.4,0.1-0.5,0.2c-0.4,0.1-0.7,0.2-1.1,0.3
		c-0.2,0.1-0.4,0.1-0.6,0.2c-0.3,0.1-0.6,0.2-1,0.3c-0.2,0.1-0.4,0.1-0.6,0.2c-0.3,0.1-0.6,0.2-0.9,0.3c-0.2,0.1-0.4,0.1-0.6,0.2
		c-0.3,0.1-0.6,0.2-0.9,0.3c-0.2,0.1-0.4,0.1-0.5,0.2c-0.4,0.1-0.7,0.2-1.1,0.4c-0.1,0-0.2,0.1-0.3,0.1c-0.5,0.2-0.9,0.3-1.4,0.5
		c-0.1,0-0.2,0.1-0.4,0.1c-0.3,0.1-0.7,0.2-1,0.4c-0.2,0.1-0.3,0.1-0.5,0.2c-0.3,0.1-0.5,0.2-0.8,0.3c-0.2,0.1-0.3,0.1-0.5,0.2
		s-0.5,0.2-0.7,0.3c-0.2,0.1-0.3,0.1-0.5,0.2s-0.5,0.2-0.7,0.3c-0.1,0.1-0.3,0.1-0.4,0.2c-0.2,0.1-0.5,0.2-0.7,0.3
		c-0.1,0-0.2,0.1-0.3,0.1c-0.3,0.2-0.6,0.3-0.9,0.5c0,0,0,0-0.1,0c-0.3,0.1-0.5,0.3-0.8,0.4c-0.1,0-0.2,0.1-0.3,0.1
		c-0.1,0.1-0.3,0.1-0.4,0.2c0,0-0.1,0-0.1,0.1c-0.3,0.2-0.5,0.3-0.8,0.5l0,0c-0.2,0.2-0.4,0.3-0.6,0.5c0,0,0,0-0.1,0
		s-0.1,0.1-0.1,0.1c-0.1,0.1-0.1,0.1-0.2,0.2c0,0,0,0-0.1,0.1s-0.1,0.2-0.2,0.3l-0.1,0.1l0,0c-0.1,0-0.1,0.1-0.2,0.2l-0.1,0.1
		c-0.1,0.1-0.2,0.1-0.3,0.2c-0.1,0-0.1,0.1-0.2,0.1c-0.2,0.1-0.3,0.2-0.5,0.3c0,0,0,0-0.1,0c-0.2,0.1-0.4,0.2-0.6,0.3h-0.1
		c-0.2,0.1-0.5,0.2-0.7,0.3c-0.1,0-0.1,0-0.2,0c-0.3,0.1-0.5,0.1-0.8,0.2h-0.1c-0.3,0-0.6,0.1-1,0.1l-5.8-7.6l8.3,30.9l5.8,7.6
		c0.3,0,0.7,0,1-0.1h0.1c0.3,0,0.6-0.1,0.8-0.2c0.1,0,0.1,0,0.2,0c0.3-0.1,0.5-0.2,0.7-0.3h0.1c0.2-0.1,0.4-0.2,0.6-0.3
		c0,0,0,0,0.1,0c0.1-0.1,0.3-0.1,0.4-0.2l0.1-0.1c0.1,0,0.1-0.1,0.2-0.1c0.1-0.1,0.2-0.1,0.3-0.2l0.1-0.1c0.1-0.1,0.2-0.1,0.2-0.2
		l0,0c0.1,0,0.1-0.1,0.1-0.1l0,0c0.1-0.1,0.1-0.2,0.2-0.3c0.1-0.1,0.1-0.1,0.2-0.2s0.1-0.1,0.2-0.2c0.2-0.2,0.4-0.3,0.6-0.5l0,0
		c0.2-0.2,0.5-0.3,0.8-0.5c0.1-0.1,0.3-0.2,0.5-0.3c0.1,0,0.2-0.1,0.3-0.1c0.2-0.1,0.5-0.3,0.8-0.4c0,0,0,0,0.1,0
		c0.3-0.2,0.6-0.3,0.9-0.5c0.1,0,0.2-0.1,0.3-0.1c0.2-0.1,0.5-0.2,0.7-0.3c0.1-0.1,0.3-0.1,0.4-0.2c0.2-0.1,0.5-0.2,0.7-0.3
		c0.2-0.1,0.3-0.1,0.5-0.2s0.5-0.2,0.7-0.3c0.2-0.1,0.3-0.1,0.5-0.2c0.3-0.1,0.5-0.2,0.8-0.3c0.2-0.1,0.3-0.1,0.5-0.2
		c0.3-0.1,0.7-0.2,1-0.4c0.1,0,0.2-0.1,0.3-0.1c0.5-0.2,0.9-0.3,1.4-0.5c0.1,0,0.2-0.1,0.3-0.1c0.4-0.1,0.7-0.3,1.1-0.4
		c0.2-0.1,0.3-0.1,0.5-0.2c0.3-0.1,0.6-0.2,1-0.3c0.2-0.1,0.4-0.1,0.6-0.2c0.3-0.1,0.6-0.2,0.9-0.3c0.2-0.1,0.4-0.1,0.6-0.2
		c0.3-0.1,0.6-0.2,1-0.3c0.2-0.1,0.4-0.1,0.6-0.2c0.4-0.1,0.7-0.2,1.1-0.3c0.2-0.1,0.4-0.1,0.5-0.2c0.5-0.1,1-0.3,1.5-0.4h0.1
		c0.5-0.1,1.1-0.3,1.6-0.4c0.2,0,0.4-0.1,0.5-0.1c0.4-0.1,0.7-0.2,1.1-0.3c0.2-0.1,0.4-0.1,0.6-0.2c0.3-0.1,0.7-0.2,1-0.3
		c0.2-0.1,0.4-0.1,0.6-0.2c0.3-0.1,0.7-0.2,1-0.2c0.2,0,0.4-0.1,0.6-0.1c0.3-0.1,0.7-0.2,1-0.2c0.2,0,0.4-0.1,0.6-0.1
		c0.4-0.1,0.8-0.2,1.2-0.3c0.1,0,0.3-0.1,0.4-0.1c0.5-0.1,1-0.2,1.6-0.3c0.1,0,0.2,0,0.4-0.1c0.4-0.1,0.8-0.1,1.2-0.2
		c0.2,0,0.4-0.1,0.5-0.1c0.3-0.1,0.6-0.1,1-0.2c0.2,0,0.4-0.1,0.6-0.1c0.3,0,0.6-0.1,0.9-0.1c0.2,0,0.4-0.1,0.6-0.1
		c0.3,0,0.6-0.1,0.9-0.1c0.2,0,0.4,0,0.5-0.1c0.3,0,0.6-0.1,0.9-0.1c0.1,0,0.3,0,0.4,0c0.4,0,0.9-0.1,1.3-0.1
		c12.7-0.9,42-4.9,53.2-4.6c6.9,0,26.5-2.5,48-5.2c22.2,0,65.3,25.2,74.6,29.7c6,2.9,15.8,4,24.6,4c5.5,0,10.7-0.5,14.2-1.2
		c3.6-0.8,8.9-1,13.9-1c7.5,0,14.2,0.5,14.5,0.5c4.4-0.4,8.4-0.6,12.1-0.6c31,0,36,12.2,36.3,12.9l0,0l24.3,22.8l8.3,7.1l-8.3-30.9
		L433.7,1406.5z"/>
	<polygon class="st5" points="1071.4,1310.4 1077.1,1342.1 1070.9,1320 1046.3,1293.3 1027.6,1285.7 1020.8,1280 1012.5,1249.1 
		1019.3,1254.8 1025.7,1257.4 1038,1262.4 1067,1293.8 1067.2,1296 	"/>
	<polygon class="st5" points="1332.4,1346.8 1328.9,1333.8 1294.4,1319.5 1253.1,1300.5 1215.9,1278.6 1220.4,1295.6 1220.4,1295.6 
		1224.2,1309.5 1261.4,1331.4 1302.7,1350.4 1337.2,1364.7 	"/>
</g>
<polygon class="st4" points="876.7,1061.6 876.7,1075.7 871.4,1081 860.3,1081 851.1,1088.2 834.6,1088.2 834.6,1103.3 
	816.9,1103.3 816.9,1121.1 811,1121.1 808.4,1140.8 808.4,1174.9 808,1173.1 807.2,1168.8 806.2,1163.7 801.8,1140.8 796.9,1140.1 
	796.9,1124.3 803.1,1124.3 803.1,1114.8 778.8,1114.8 778.8,1100.7 770.9,1092.1 765,1092.1 765,1070.6 753,1068.4 755,1054.7 
	748,1054.7 748,1040.9 801.2,1040.9 801.2,1041.1 801.5,1042.3 801.6,1042.7 801.8,1043.5 802,1044.4 803.3,1049.5 812.3,1049.5 
	818.2,1055.4 818.2,1040.9 828.7,1040.9 828.7,1055.4 836.6,1055.4 837.3,1068.4 862.2,1067.5 862.2,1054.7 869.4,1058 "/>
<polygon class="st4" points="938.7,1004 933,1007.1 922.2,1018.3 908.7,1027 896.5,1030.9 884,1038 877.5,1040.9 875.2,1036.3 
	872.6,1031.1 864,1030.9 856,1027 838.3,1028 828.2,1034.3 828.1,1034 822.5,1031.6 822.5,1026.6 819.8,1024.7 822.5,1014.8 
	808.1,1014.8 802,1010 802,1007.1 802.8,994.5 802.2,991.7 815.8,991.7 832.4,993.3 836.1,986.3 823.3,982.1 823.3,960.3 834,961.3 
	845.3,959.7 850.5,949.1 857.4,948.5 862.2,952.3 873.4,954.9 877.1,943.8 895.2,958.1 930.3,995.9 936,1001.3 "/>
</svg>
